<?xml version="1.0" standalone="no"?>
<!DOCTYPE svg PUBLIC "-//W3C//DTD SVG 1.1//EN" "http://www.w3.org/Graphics/SVG/1.1/DTD/svg11.dtd" >
<svg xmlns="http://www.w3.org/2000/svg" xmlns:xlink="http://www.w3.org/1999/xlink" version="1.1">
<metadata>
Created by FontForge 20201107 at Thu Sep 10 09:41:18 2020
 By Jimmy Wärting
Copyright \(c\) 2020 by Arterfak Project. All rights reserved.
</metadata>
<defs>
<font id="VarinoNormal-Regular" horiz-adv-x="891" >
  <font-face 
    font-family="Varino Normal"
    font-weight="400"
    font-stretch="normal"
    units-per-em="1000"
    panose-1="0 0 0 0 0 0 0 0 0 0"
    ascent="750"
    descent="-250"
    x-height="707"
    cap-height="715"
    bbox="-110.915 -268 1830 1169"
    underline-thickness="50"
    underline-position="-100"
    stemh="160"
    stemv="160"
    unicode-range="U+000D-E047"
  />
<missing-glyph horiz-adv-x="400" 
 />
    <glyph glyph-name=".notdef" horiz-adv-x="400" 
 />
    <glyph glyph-name="NULL" horiz-adv-x="0" 
 />
    <glyph glyph-name="NULL" horiz-adv-x="0" 
 />
    <glyph glyph-name="CR" unicode="&#xd;" horiz-adv-x="400" 
 />
    <glyph glyph-name="space" unicode=" " horiz-adv-x="375" 
 />
    <glyph glyph-name="E" unicode="E" 
d="M757 715c35 0 64 -29 64 -64s-29 -63 -64 -63h-624c-35 0 -63 28 -63 63s28 64 63 64h624zM757 128c35 0 64 -28 64 -63c0 -36 -29 -64 -64 -64h-624c-35 0 -63 28 -63 64c0 35 28 63 63 63h624zM757 421c35 0 64 -28 64 -63s-29 -64 -64 -64h-624c-35 0 -63 29 -63 64
s28 63 63 63h624z" />
    <glyph glyph-name="F" unicode="F" 
d="M758 715c35 0 63 -29 63 -64s-28 -63 -63 -63h-624c-35 0 -64 28 -64 63s29 64 64 64h624zM758 421c35 0 63 -28 63 -63s-28 -64 -63 -64h-561v-229c0 -36 -28 -64 -63 -64s-64 28 -64 64v293c0 35 29 63 64 63h624z" />
    <glyph glyph-name="G" unicode="G" horiz-adv-x="883" 
d="M750 394c35 0 63 -29 63 -64v-181c0 -17 -7 -34 -19 -46c-70 -67 -169 -102 -285 -102h-51c-117 0 -216 36 -286 104c-34 32 -60 71 -77 115c-17 43 -25 89 -25 138c0 48 8 95 25 137c17 44 43 83 77 116c70 68 169 104 286 104h51c50 0 98 -7 141 -20
c42 -13 81 -32 114 -58c28 -21 33 -61 12 -89s-61 -33 -89 -12c-44 34 -106 52 -178 52h-51c-161 0 -261 -89 -261 -230c0 -142 100 -230 261 -230h51c72 0 132 18 177 51v87h-244c-35 0 -64 29 -64 64s29 64 64 64h308z" />
    <glyph glyph-name="H" unicode="H" 
d="M758 715c35 0 63 -29 63 -64v-586c0 -36 -28 -64 -63 -64s-64 28 -64 64v221h-497v-221c0 -36 -28 -64 -63 -64s-64 28 -64 64v586c0 35 29 64 64 64s63 -29 63 -64v-238h497v238c0 35 29 64 64 64z" />
    <glyph glyph-name="I" unicode="I" horiz-adv-x="267" 
d="M133 715c35 0 64 -29 64 -64v-586c0 -36 -29 -64 -64 -64s-63 28 -63 64v586c0 35 28 64 63 64z" />
    <glyph glyph-name="J" unicode="J" horiz-adv-x="884" 
d="M751 715c35 0 63 -29 63 -64v-293c0 -49 -8 -95 -25 -138c-18 -44 -43 -83 -77 -115c-70 -68 -169 -104 -286 -104h-51c-116 0 -215 35 -285 102c-25 25 -26 65 -2 90c25 26 65 26 90 2c46 -44 114 -67 197 -67h51c161 0 261 88 261 230v293c0 35 28 64 64 64z" />
    <glyph glyph-name="K" unicode="K" 
d="M611 336l195 -230c22 -27 19 -67 -8 -90c-12 -10 -26 -15 -41 -15c-18 0 -36 8 -48 23l-229 270h-283v-229c0 -36 -29 -64 -64 -64s-63 28 -63 64v586c0 35 28 64 63 64s64 -29 64 -64v-230h246c61 0 119 24 162 68c44 43 67 101 67 162c0 35 29 64 64 64s64 -29 64 -64
c0 -48 -10 -95 -29 -139c-18 -42 -43 -80 -76 -113c-25 -25 -53 -46 -84 -63z" />
    <glyph glyph-name="L" unicode="L" horiz-adv-x="806" 
d="M672 128c35 0 64 -28 64 -63c0 -36 -29 -64 -64 -64h-539c-35 0 -63 28 -63 64v586c0 35 28 64 63 64s64 -29 64 -64v-523h475z" />
    <glyph glyph-name="M" unicode="M" horiz-adv-x="1116" 
d="M1008 710c23 -10 38 -33 38 -59v-586c0 -36 -28 -64 -63 -64s-64 28 -64 64v437l-317 -305c-23 -23 -65 -23 -88 0l-317 305v-437c0 -36 -29 -64 -64 -64s-63 28 -63 64v586c0 26 15 49 38 59c24 10 51 5 69 -13l381 -366l381 366c18 18 45 23 69 13z" />
    <glyph glyph-name="N" unicode="N" 
d="M758 715c35 0 63 -29 63 -64v-586c0 -26 -15 -49 -38 -59c-8 -3 -17 -5 -25 -5c-16 0 -32 6 -44 17l-517 486v-439c0 -36 -28 -64 -63 -64s-64 28 -64 64v586c0 25 15 48 39 58c23 10 50 6 68 -12l517 -485v439c0 35 28 64 64 64z" />
    <glyph glyph-name="O" unicode="O" horiz-adv-x="968" 
d="M796 611c33 -33 59 -72 76 -116c17 -42 26 -89 26 -137c0 -49 -9 -95 -26 -138c-17 -44 -43 -83 -76 -115c-70 -68 -169 -104 -287 -104h-50c-118 0 -217 36 -287 104c-33 32 -59 71 -77 115c-16 43 -25 89 -25 138c0 48 9 95 25 137c18 44 44 83 77 116
c70 68 169 104 287 104h50c118 0 217 -36 287 -104zM509 128c161 0 262 88 262 230c0 141 -101 230 -262 230h-50c-162 0 -262 -89 -262 -230c0 -142 100 -230 262 -230h50z" />
    <glyph glyph-name="P" unicode="P" 
d="M750 644c46 -46 71 -106 71 -171s-25 -125 -71 -171c-45 -45 -106 -71 -171 -71h-382v-166c0 -36 -28 -64 -63 -64c-36 0 -64 28 -64 64v230c0 35 28 64 64 64h445c63 0 115 51 115 114s-52 115 -115 115h-445c-36 0 -64 28 -64 63s28 64 64 64h445c65 0 126 -26 171 -71
z" />
    <glyph glyph-name="Q" unicode="Q" horiz-adv-x="969" 
d="M850 41c34 -9 55 -43 46 -77c-8 -29 -34 -48 -62 -48c-5 0 -10 1 -16 2l-317 83h-42c-118 0 -217 36 -287 104c-33 32 -59 71 -76 115c-17 43 -26 89 -26 138c0 48 9 95 26 137c17 44 43 83 76 116c70 68 169 104 287 104h50c118 0 217 -36 287 -104
c33 -33 59 -72 76 -116c17 -42 26 -89 26 -137c0 -49 -9 -95 -26 -138c-17 -44 -43 -83 -76 -115c-15 -14 -30 -26 -46 -37zM197 358c0 -142 100 -230 262 -230h50h1c161 0 261 88 261 230c0 141 -101 230 -262 230h-50c-162 0 -262 -89 -262 -230z" />
    <glyph glyph-name="R" unicode="R" horiz-adv-x="948" 
d="M814 128c35 0 64 -28 64 -63c0 -36 -29 -64 -64 -64h-102c-18 0 -35 7 -47 20l-194 210h-274v-166c0 -36 -29 -64 -64 -64s-63 28 -63 64v230c0 35 28 64 63 64h446c63 0 115 51 115 114s-52 115 -115 115h-446c-35 0 -63 28 -63 63s28 64 63 64h446
c65 0 125 -26 171 -71c46 -46 71 -106 71 -171s-25 -125 -71 -171c-31 -31 -70 -53 -112 -63l102 -111h74z" />
    <glyph glyph-name="S" unicode="S" 
d="M611 421c116 0 210 -94 210 -210s-94 -210 -210 -210h-435c-35 0 -64 28 -64 64c0 35 29 63 64 63h435c46 0 83 37 83 83s-37 83 -83 83h-331c-116 0 -210 95 -210 210c0 116 94 211 210 211h435c35 0 64 -29 64 -64s-29 -63 -64 -63h-435c-46 0 -83 -38 -83 -84
c0 -45 37 -83 83 -83h331z" />
    <glyph glyph-name="T" unicode="T" horiz-adv-x="811" 
d="M718 715c35 0 63 -29 63 -64s-28 -63 -63 -63h-249v-523c0 -36 -28 -64 -63 -64s-64 28 -64 64v523h-248c-35 0 -64 28 -64 63s29 64 64 64h624z" />
    <glyph glyph-name="U" unicode="U" 
d="M758 715c35 0 63 -29 63 -64v-293c0 -48 -7 -94 -22 -135c-15 -44 -38 -83 -68 -116c-64 -69 -155 -106 -263 -106h-45c-107 0 -198 37 -262 106c-30 33 -53 72 -68 116c-15 41 -23 87 -23 135v293c0 35 29 64 64 64s64 -29 64 -64v-293c0 -111 59 -230 225 -230h45
c167 0 226 119 226 230v293c0 35 29 64 64 64z" />
    <glyph glyph-name="V" unicode="V" horiz-adv-x="939" 
d="M871 709c32 -15 46 -52 32 -84l-223 -489c-37 -82 -120 -135 -210 -135c-91 0 -173 53 -211 135l-223 489c-14 32 0 69 32 84c32 14 70 0 84 -32l223 -488c17 -37 54 -61 95 -61c40 0 77 24 94 61l223 488c15 32 52 46 84 32z" />
    <glyph glyph-name="W" unicode="W" horiz-adv-x="1520" 
d="M1452 709c32 -15 46 -52 32 -84l-241 -527c-26 -59 -85 -97 -150 -97s-124 38 -150 97l-183 400l-182 -400c-27 -59 -86 -97 -151 -97c-64 0 -123 38 -150 97l-240 527c-15 32 -1 69 31 84c32 14 70 0 84 -32l241 -527c6 -13 19 -22 34 -22s29 9 35 22l240 527
c11 23 33 38 58 38s48 -15 58 -38l240 -527c6 -13 20 -22 35 -22s29 9 35 22l240 527c15 32 52 46 84 32z" />
    <glyph glyph-name="X" unicode="X" horiz-adv-x="892" 
d="M727 462c-22 -42 -53 -77 -90 -104c37 -27 68 -63 90 -104l87 -159c16 -31 5 -70 -26 -86c-10 -6 -20 -8 -30 -8c-23 0 -45 12 -56 33l-86 159c-34 62 -99 101 -170 101s-136 -39 -170 -101l-86 -159c-12 -21 -34 -33 -56 -33c-10 0 -21 2 -30 8c-31 16 -43 55 -26 86
l86 159c23 41 54 77 90 104c-36 27 -67 62 -90 104l-86 159c-17 31 -5 69 26 86c30 17 69 5 86 -26l86 -158c34 -63 99 -102 170 -102s136 39 170 102l86 158c17 31 55 43 86 26s42 -55 26 -86z" />
    <glyph glyph-name="Y" unicode="Y" horiz-adv-x="812" 
d="M746 708c32 -16 44 -54 28 -86l-89 -177c-27 -51 -66 -94 -116 -125c-31 -19 -64 -32 -100 -39v-216c0 -36 -28 -64 -63 -64s-64 28 -64 64v216c-35 7 -69 20 -100 39c-49 31 -89 74 -115 125l-90 177c-16 32 -3 70 28 86s70 3 86 -28l89 -177c32 -63 96 -102 166 -102
s133 39 165 102l90 177c16 31 54 44 85 28z" />
    <glyph glyph-name="Z" unicode="Z" 
d="M737 128c35 0 63 -28 63 -63c0 -36 -28 -64 -63 -64h-479c-104 0 -188 84 -188 187c0 43 15 84 41 117c27 33 64 57 105 66l431 98c28 6 47 30 47 58c0 34 -27 61 -60 61h-479c-35 0 -63 28 -63 63s28 64 63 64h479c103 0 187 -84 187 -188c0 -42 -14 -83 -41 -117
c-26 -33 -63 -56 -105 -65l-431 -98c-27 -6 -47 -30 -47 -59c0 -33 27 -60 61 -60h479z" />
    <glyph glyph-name="D" unicode="D" 
d="M716 610c33 -33 59 -71 77 -113c18 -44 28 -91 28 -139s-10 -95 -28 -139c-18 -43 -44 -81 -77 -114c-32 -32 -71 -58 -113 -76c-44 -19 -91 -28 -139 -28h-331c-35 0 -63 28 -63 64c0 35 28 63 63 63h331c127 0 230 103 230 230c0 126 -103 230 -230 230h-267v-230
c0 -35 -28 -64 -64 -64c-35 0 -63 29 -63 64v293c0 35 28 64 63 64h331c48 0 95 -10 139 -28c42 -18 81 -44 113 -77z" />
    <glyph glyph-name="a" unicode="a" 
d="M583 715c64 0 124 -25 169 -70s69 -105 69 -169v-411c0 -36 -28 -64 -63 -64s-64 28 -64 64v229h-413c-46 0 -83 -37 -83 -83s37 -83 83 -83h165c35 0 64 -28 64 -63c0 -36 -29 -64 -64 -64h-165c-116 0 -211 94 -211 210s95 210 211 210h413v55c0 62 -50 112 -111 112
h-396c-35 0 -64 28 -64 63s29 64 64 64h396z" />
    <glyph glyph-name="b" unicode="b" 
d="M611 715c116 0 210 -95 210 -210c0 -57 -23 -109 -60 -147c37 -37 60 -89 60 -146v-1c0 -116 -94 -210 -210 -210h-477c-35 0 -64 28 -64 64v293c0 36 29 64 64 64h477c46 0 83 37 83 83c0 45 -37 83 -83 83h-477c-35 0 -64 28 -64 63s29 64 64 64h477zM694 211v1
c0 46 -37 83 -83 83h-414v-167h414c46 0 83 37 83 83z" />
    <glyph glyph-name="c" unicode="c" 
d="M427 588c-127 0 -230 -104 -230 -230c0 -127 103 -230 230 -230h330c35 0 64 -28 64 -63c0 -36 -29 -64 -64 -64h-330c-48 0 -95 9 -139 28c-43 18 -81 44 -113 76c-33 33 -59 71 -77 114c-19 44 -28 91 -28 139s9 95 28 139c18 42 44 80 77 113c32 33 70 59 113 77
c44 18 91 28 139 28h330c35 0 64 -29 64 -64s-29 -63 -64 -63h-330z" />
    <glyph glyph-name="d" unicode="d" horiz-adv-x="892" 
d="M717 610c33 -33 59 -71 76 -113c19 -44 29 -91 29 -139s-10 -95 -29 -139c-17 -43 -43 -81 -76 -114c-33 -32 -71 -58 -113 -76c-44 -19 -91 -28 -139 -28h-331c-35 0 -63 28 -63 64v218c0 35 28 63 63 63s64 -28 64 -63v-155h267c13 0 27 1 40 4l-419 477
c-16 19 -20 46 -10 68c11 23 33 38 58 38h331c48 0 95 -10 139 -28c42 -18 80 -44 113 -77zM622 190c45 42 72 102 72 168c0 126 -103 230 -229 230h-191z" />
    <glyph glyph-name="e" unicode="e" 
d="M611 294h-414v-47c0 -66 54 -119 119 -119h389c35 0 63 -28 63 -63c0 -36 -28 -64 -63 -64h-389c-66 0 -127 26 -174 72c-46 46 -72 108 -72 174v220c0 66 26 128 73 175s109 73 175 73h293c116 0 210 -95 210 -211c0 -115 -94 -210 -210 -210zM197 467v-46h414
c46 0 83 38 83 83c0 46 -37 84 -83 84h-293c-67 0 -121 -55 -121 -121z" />
    <glyph glyph-name="f" unicode="f" 
d="M758 421c35 0 63 -28 63 -63s-28 -64 -63 -64h-378c-35 0 -64 29 -64 64s29 63 64 63h378zM758 588h-561v-523c0 -36 -28 -64 -63 -64s-64 28 -64 64v586c0 35 29 64 64 64h624c35 0 63 -29 63 -64s-28 -63 -63 -63z" />
    <glyph glyph-name="g" unicode="g" horiz-adv-x="884" 
d="M751 394c35 0 63 -29 63 -64v-202c0 -21 -10 -40 -27 -52c-3 -2 -30 -21 -78 -39c-61 -24 -130 -36 -200 -36h-50c-117 0 -216 36 -286 104c-34 32 -60 71 -77 115c-17 43 -26 89 -26 138c0 48 9 95 26 137c17 44 43 83 77 116c70 68 169 104 286 104h50
c51 0 99 -7 142 -20c42 -13 81 -32 114 -58c28 -21 33 -61 12 -89s-61 -33 -89 -12c-44 34 -106 52 -179 52h-50c-161 0 -261 -89 -261 -230c0 -142 100 -230 261 -230h50c66 0 118 14 150 26c11 4 20 8 28 12v100h-244c-35 0 -64 29 -64 64s29 64 64 64h308z" />
    <glyph glyph-name="h" unicode="h" 
d="M757 715c35 0 64 -29 64 -64v-586c0 -36 -29 -64 -64 -64s-63 28 -63 64v221h-497v-221c0 -36 -28 -64 -63 -64c-36 0 -64 28 -64 64v586c0 35 28 64 64 64c35 0 63 -29 63 -64v-238h497v238c0 35 28 64 63 64z" />
    <glyph glyph-name="i" unicode="i" horiz-adv-x="627" 
d="M493 588h-116v-460h116c36 0 64 -28 64 -63c0 -36 -28 -64 -64 -64h-359c-35 0 -64 28 -64 64c0 35 29 63 64 63h116v460h-116c-35 0 -64 28 -64 63s29 64 64 64h359c36 0 64 -29 64 -64s-28 -63 -64 -63z" />
    <glyph glyph-name="j" unicode="j" horiz-adv-x="884" 
d="M751 715c35 0 63 -29 63 -64v-293c0 -49 -8 -95 -25 -138c-17 -44 -43 -83 -77 -115c-70 -68 -169 -104 -286 -104h-51c-116 0 -215 35 -285 102c-25 25 -26 65 -1 90c24 26 64 26 89 2c46 -44 114 -67 197 -67h51c161 0 261 88 261 230v230h-244c-35 0 -64 28 -64 63
s29 64 64 64h308z" />
    <glyph glyph-name="k" unicode="k" horiz-adv-x="870" 
d="M772 512c-18 -42 -44 -80 -77 -113c-15 -15 -31 -29 -49 -41c18 -12 34 -26 49 -41c33 -33 59 -71 77 -114c18 -44 28 -90 28 -138c0 -36 -29 -64 -64 -64s-63 28 -63 64c0 61 -24 119 -68 162c-43 43 -101 67 -162 67h-246v-229c0 -36 -28 -64 -63 -64s-64 28 -64 64
v586c0 35 29 64 64 64s63 -29 63 -64v-230h246c61 0 119 24 162 68c44 43 68 101 68 162c0 35 28 64 63 64s64 -29 64 -64c0 -48 -10 -95 -28 -139z" />
    <glyph glyph-name="l" unicode="l" horiz-adv-x="806" 
d="M672 128c35 0 64 -28 64 -63c0 -36 -29 -64 -64 -64h-313c-77 0 -150 30 -205 85c-54 54 -84 127 -84 204v361c0 35 28 64 63 64s64 -29 64 -64v-361c0 -89 73 -162 162 -162h313z" />
    <glyph glyph-name="m" unicode="m" horiz-adv-x="1103" 
d="M831 715c117 0 212 -95 212 -212v-438c0 -36 -28 -64 -64 -64c-35 0 -63 28 -63 64v438c0 46 -38 85 -85 85c-119 0 -216 -97 -216 -217v-306c0 -36 -28 -64 -63 -64v0c-36 0 -64 28 -64 64v306c0 120 -97 217 -216 217c-47 0 -85 -39 -85 -85v-438
c0 -36 -28 -64 -63 -64s-64 28 -64 64v438c0 117 95 212 212 212c46 0 91 -9 134 -27c40 -18 77 -42 109 -74c13 -13 26 -28 37 -43c11 15 23 30 37 43c31 32 68 56 109 74c42 18 87 27 133 27z" />
    <glyph glyph-name="n" unicode="n" 
d="M728 622c29 -30 52 -64 68 -101c17 -40 25 -81 25 -124v-332c0 -36 -28 -64 -63 -64c-36 0 -64 28 -64 64v332c0 105 -86 191 -191 191h-115c-105 0 -191 -86 -191 -191v-332c0 -36 -28 -64 -63 -64s-64 28 -64 64v332c0 43 9 84 25 124c16 37 39 71 68 101
c29 29 63 52 101 68c39 16 81 25 124 25h115c43 0 85 -9 124 -25c38 -16 72 -39 101 -68z" />
    <glyph glyph-name="o" unicode="o" horiz-adv-x="967" 
d="M795 611c34 -33 59 -72 77 -116c17 -42 25 -89 25 -137c0 -49 -8 -95 -25 -138c-18 -44 -43 -83 -77 -115c-70 -68 -169 -104 -286 -104h-51c-117 0 -216 36 -286 104c-34 32 -60 71 -77 115c-17 43 -25 89 -25 138c0 48 8 95 25 137c17 44 43 83 77 116
c70 68 169 104 286 104h51c117 0 216 -36 286 -104zM509 128c161 0 261 88 261 230c0 141 -100 230 -261 230h-51c-161 0 -261 -89 -261 -230c0 -142 100 -230 261 -230h51z" />
    <glyph glyph-name="p" unicode="p" 
d="M751 644c45 -46 70 -106 70 -171s-25 -125 -70 -171c-46 -45 -107 -71 -171 -71h-195c-35 0 -63 29 -63 64s28 64 63 64h195c63 0 114 51 114 114s-51 115 -114 115h-382v-523c0 -36 -29 -64 -64 -64s-64 28 -64 64v586c0 35 29 64 64 64h446c64 0 125 -26 171 -71z" />
    <glyph glyph-name="q" unicode="q" horiz-adv-x="968" 
d="M850 41c34 -9 54 -43 46 -77c-8 -29 -34 -48 -62 -48c-5 0 -11 1 -16 2l-317 83h-42c-118 0 -217 36 -287 104c-33 32 -59 71 -77 115c-16 43 -25 89 -25 138c0 48 9 95 25 137c18 44 44 83 77 116c70 68 169 104 287 104h50c117 0 217 -36 287 -104
c33 -33 59 -72 76 -116c17 -42 26 -89 26 -137c0 -49 -9 -95 -26 -138c-17 -44 -43 -83 -76 -115c-15 -14 -30 -26 -47 -37zM197 358c0 -142 100 -230 262 -230h49h2c161 0 260 88 260 230c0 141 -100 230 -261 230h-50c-162 0 -262 -89 -262 -230z" />
    <glyph glyph-name="r" unicode="r" horiz-adv-x="947" 
d="M814 128c35 0 63 -28 63 -63c0 -36 -28 -64 -63 -64c-122 0 -228 22 -306 64c-93 50 -147 127 -157 223v1v0v1v2v2v1v0c0 5 1 11 2 16v0c0 1 0 1 1 2v1v1c3 8 7 16 13 22v1h1c6 6 13 12 21 15c0 0 1 0 1 1h1c1 0 1 0 2 1v0c1 0 2 0 3 1v0c3 1 6 1 9 2v0h3v0h1h2h3v1h1v0
h164c63 0 114 51 114 114s-51 115 -114 115h-382v-523c0 -36 -29 -64 -64 -64s-63 28 -63 64v586c0 35 28 64 63 64h446c65 0 125 -26 171 -71c45 -46 71 -106 71 -171s-26 -125 -71 -171c-46 -45 -106 -71 -171 -71h-76c15 -21 37 -39 65 -54c60 -32 145 -49 246 -49z" />
    <glyph glyph-name="s" unicode="s" 
d="M611 421c115 0 210 -94 210 -210s-95 -210 -210 -210h-435c-35 0 -64 28 -64 64c0 35 29 63 64 63h435c45 0 83 37 83 83s-38 83 -83 83h-331c-116 0 -210 95 -210 210c0 116 94 211 210 211h435c35 0 63 -29 63 -64s-28 -63 -63 -63h-435c-46 0 -83 -38 -83 -84
c0 -45 37 -83 83 -83h331z" />
    <glyph glyph-name="t" unicode="t" 
d="M758 715c35 0 63 -29 63 -64s-28 -63 -63 -63h-249v-523c0 -36 -28 -64 -63 -64s-64 28 -64 64v523h-248c-35 0 -64 28 -64 63s29 64 64 64h624z" />
    <glyph glyph-name="u" unicode="u" 
d="M758 715c35 0 63 -29 63 -64v-293c0 -48 -7 -94 -22 -135c-15 -44 -38 -83 -68 -116c-64 -69 -155 -106 -263 -106h-45c-108 0 -198 37 -262 106c-30 33 -53 72 -69 116c-14 41 -22 87 -22 135v293c0 35 29 64 64 64s63 -29 63 -64v-293c0 -111 60 -230 226 -230h45
c167 0 226 119 226 230v293c0 35 29 64 64 64z" />
    <glyph glyph-name="v" unicode="v" horiz-adv-x="939" 
d="M871 709c32 -15 46 -52 32 -84l-223 -489c-38 -82 -120 -135 -211 -135c-90 0 -172 53 -210 135l-223 489c-14 32 0 69 32 84c32 14 69 0 84 -32l223 -488c17 -37 54 -61 94 -61c41 0 78 24 95 61l223 488c14 32 52 46 84 32z" />
    <glyph glyph-name="w" unicode="w" horiz-adv-x="1269" 
d="M1135 715c35 0 64 -29 64 -64v-346c0 -41 -7 -79 -19 -115c-13 -37 -32 -70 -57 -98c-54 -60 -130 -91 -220 -91h-36c-91 0 -167 31 -221 91c-4 5 -8 9 -12 14c-4 -5 -8 -9 -12 -14c-53 -60 -130 -91 -220 -91h-36c-91 0 -167 31 -220 91c-26 28 -45 61 -58 98
c-12 36 -18 74 -18 115v346c0 35 28 64 64 64c35 0 63 -29 63 -64v-346c0 -42 12 -177 169 -177h36c157 0 169 135 169 177v346c0 35 28 64 63 64s64 -29 64 -64v-346c0 -42 12 -177 169 -177h36c156 0 168 135 168 177v346c0 35 29 64 64 64z" />
    <glyph glyph-name="x" unicode="x" horiz-adv-x="892" 
d="M727 462c-22 -42 -53 -77 -90 -104c37 -27 68 -63 90 -104l87 -159c16 -31 5 -70 -26 -86c-10 -6 -20 -8 -30 -8c-23 0 -45 12 -56 33l-86 159c-34 62 -99 101 -170 101s-136 -39 -170 -101l-86 -159c-12 -21 -34 -33 -56 -33c-10 0 -21 2 -30 8c-31 16 -43 55 -26 86
l86 159c23 41 54 77 90 104c-36 27 -67 62 -90 104l-86 159c-17 31 -5 69 26 86c30 17 69 5 86 -26l86 -158c34 -63 99 -102 170 -102s136 39 170 102l86 158c16 31 55 43 86 26s42 -55 26 -86z" />
    <glyph glyph-name="y" unicode="y" 
d="M758 715c35 0 63 -29 63 -64v-332c0 -93 -23 -167 -68 -221c-55 -64 -139 -97 -250 -97h-180c-90 0 -176 39 -237 106c-23 26 -21 66 5 90c27 23 67 21 90 -5c36 -41 88 -64 142 -64h180c72 0 124 18 153 52c25 30 38 77 38 139v22c-50 -31 -114 -47 -191 -47h-115
c-111 0 -195 33 -249 97c-46 54 -69 128 -69 221v39c0 35 29 64 64 64s63 -29 63 -64v-39c0 -62 13 -109 39 -139c29 -34 80 -52 152 -52h115c72 0 124 18 153 52c25 30 38 77 38 139v39c0 35 29 64 64 64z" />
    <glyph glyph-name="z" unicode="z" 
d="M737 128c35 0 63 -28 63 -63c0 -36 -28 -64 -63 -64h-479c-104 0 -188 84 -188 187c0 43 15 84 41 117c27 33 64 57 105 66l431 98c28 6 47 30 47 58c0 34 -27 61 -60 61h-479c-35 0 -63 28 -63 63s28 64 63 64h479c103 0 187 -84 187 -188c0 -42 -14 -83 -41 -117
c-26 -33 -63 -56 -105 -65l-431 -98c-27 -6 -47 -30 -47 -59c0 -33 27 -60 61 -60h479z" />
    <glyph glyph-name="zero" unicode="0" horiz-adv-x="969" 
d="M794 611c68 -64 105 -154 105 -253s-37 -189 -105 -254c-71 -67 -171 -103 -289 -103h-42c-118 0 -218 36 -289 103c-67 65 -104 155 -104 254s37 189 104 253c71 68 171 104 289 104h42c118 0 218 -36 289 -104zM505 128c164 0 266 88 266 230c0 141 -102 230 -266 230
h-42c-164 0 -266 -89 -266 -230c0 -142 102 -230 266 -230h42z" />
    <glyph glyph-name="one" unicode="1" horiz-adv-x="722" 
d="M588 128c35 0 64 -28 64 -63c0 -36 -29 -64 -64 -64h-454c-35 0 -64 28 -64 64c0 35 29 63 64 63h164v432l-142 -53c-7 -3 -15 -4 -22 -4c-26 0 -50 16 -60 41c-12 33 5 70 38 82l227 85c20 7 41 4 58 -8c18 -12 28 -31 28 -52v-523h163z" />
    <glyph glyph-name="two" unicode="2" 
d="M281 292c-46 0 -84 -38 -84 -84v-80h561c35 0 63 -28 63 -63c0 -36 -28 -64 -63 -64h-624c-35 0 -64 28 -64 64v143c0 116 95 211 211 211h329c46 0 84 38 84 84c0 47 -38 85 -84 85h-434c-35 0 -63 28 -63 63s28 64 63 64h434c116 0 211 -95 211 -212
c0 -116 -95 -211 -211 -211h-329z" />
    <glyph glyph-name="three" unicode="3" horiz-adv-x="892" 
d="M682 410c81 -29 139 -107 139 -198v-1c0 -116 -94 -210 -210 -210h-477c-35 0 -64 28 -64 64c0 35 29 63 64 63h477c46 0 83 37 83 83v1c0 46 -37 83 -83 83h-414c-35 0 -63 28 -63 63c0 36 28 64 63 64h343l103 166h-509c-35 0 -64 28 -64 63s29 64 64 64h623
c24 0 45 -13 56 -33s11 -45 -2 -65z" />
    <glyph glyph-name="four" unicode="4" 
d="M654 715c92 0 167 -75 167 -168v-482c0 -36 -28 -64 -63 -64s-64 28 -64 64v84h-560c-26 0 -50 16 -59 41c-10 24 -3 52 16 69l450 412c31 28 71 44 113 44zM694 276v271c0 22 -18 41 -40 41c-10 0 -20 -4 -27 -11l-329 -301h396z" />
    <glyph glyph-name="five" unicode="5" 
d="M611 422c116 0 210 -94 210 -210v-1c0 -116 -94 -210 -210 -210h-477c-35 0 -64 28 -64 64c0 35 29 63 64 63h477c46 0 83 37 83 83v1c0 46 -37 83 -83 83h-467c-17 0 -34 7 -46 20s-19 30 -17 48l21 293c2 33 30 59 63 59h550c35 0 64 -29 64 -64s-29 -63 -64 -63h-491
l-12 -166h399z" />
    <glyph glyph-name="six" unicode="6" 
d="M611 421c116 0 210 -94 210 -210s-94 -210 -210 -210h-293c-66 0 -128 26 -175 73c-47 46 -73 109 -73 175v220c0 65 26 127 72 174c47 46 108 72 174 72h389c35 0 63 -29 63 -64s-28 -63 -63 -63h-389c-65 0 -119 -54 -119 -119v-48h414zM611 128c46 0 83 37 83 83
s-37 83 -83 83h-414v-45c0 -67 55 -121 121 -121h293z" />
    <glyph glyph-name="seven" unicode="7" horiz-adv-x="892" 
d="M757 715c26 0 48 -15 59 -38c10 -23 5 -50 -12 -69l-539 -586c-12 -14 -30 -21 -47 -21c-15 0 -31 6 -43 17c-26 24 -27 64 -4 90l442 480h-479c-36 0 -64 28 -64 63s28 64 64 64h623z" />
    <glyph glyph-name="eight" unicode="8" 
d="M615 715c113 0 206 -93 206 -207v-7c0 -56 -23 -107 -59 -144c37 -38 59 -89 59 -146c0 -116 -94 -210 -210 -210h-331c-116 0 -210 94 -210 210c0 57 22 108 59 146c-37 37 -59 88 -59 144v7c0 114 92 207 206 207h339zM197 508v-7c0 -44 36 -80 79 -80h339
c43 0 79 36 79 80v7c0 44 -36 80 -79 80h-339c-43 0 -79 -36 -79 -80zM611 128c45 0 83 37 83 83s-38 83 -83 83h-331c-46 0 -83 -37 -83 -83s37 -83 83 -83h331z" />
    <glyph glyph-name="nine" unicode="9" horiz-adv-x="890" 
d="M573 715c66 0 128 -26 175 -73s72 -109 72 -175v-220c0 -66 -25 -128 -72 -174c-46 -46 -108 -72 -173 -72h-389c-35 0 -63 28 -63 64c0 35 28 63 63 63h389c65 0 118 53 118 119v47h-413c-116 0 -210 95 -210 210c0 116 94 211 210 211h293zM693 421v46
c0 66 -54 121 -120 121h-293c-46 0 -83 -38 -83 -84c0 -45 37 -83 83 -83h413z" />
    <glyph glyph-name="asciitilde" unicode="~" horiz-adv-x="797" 
d="M601 435c25 76 141 49 124 -29c-1 -4 -10 -42 -36 -81c-37 -58 -93 -90 -157 -90c-73 0 -127 40 -170 72c-42 31 -69 50 -104 50c-14 0 -31 -4 -47 -30c-11 -19 -15 -39 -15 -39c-5 -34 -38 -58 -73 -53c-34 6 -58 39 -52 73c0 5 7 44 31 84c35 59 90 92 156 92
c79 0 135 -42 180 -75c39 -29 64 -47 94 -47c13 0 31 3 49 30c14 20 20 43 20 43z" />
    <glyph glyph-name="grave" unicode="`" horiz-adv-x="381" 
d="M179 794l113 -113c25 -25 25 -65 0 -90c-13 -12 -29 -18 -45 -18s-33 6 -45 18l-113 113c-25 25 -25 66 0 90c25 25 65 25 90 0z" />
    <glyph glyph-name="exclam" unicode="!" horiz-adv-x="309" 
d="M154 149c47 0 85 -38 85 -84c0 -47 -38 -85 -85 -85c-46 0 -84 38 -84 85c0 46 38 84 84 84zM116 266l-25 406c-2 35 24 66 60 68c35 2 65 -25 67 -60v-8l-25 -406c-1 -21 -20 -37 -41 -36c-20 1 -35 17 -36 36z" />
    <glyph glyph-name="at" unicode="@" horiz-adv-x="851" 
d="M566 715c119 0 215 -97 215 -216v-208c0 -66 -54 -121 -120 -121c-67 0 -121 55 -121 121v26h-199c-18 0 -33 -15 -33 -33s15 -32 33 -32h83c23 0 41 -19 41 -41c0 -23 -18 -41 -41 -41h-83c-63 0 -114 51 -114 114s51 114 114 114h199v19c0 26 -21 47 -47 47h-199
c-22 0 -40 18 -40 41c0 22 18 40 40 40h199c70 0 128 -57 128 -128v-126c0 -22 18 -39 40 -39c21 0 39 17 39 39v208c0 74 -60 134 -134 134h-281c-74 0 -134 -60 -134 -134v-283c0 -74 60 -134 134 -134h384c22 0 41 -18 41 -40c0 -23 -19 -41 -41 -41h-384
c-118 0 -215 97 -215 215v283c0 119 97 216 215 216h281z" />
    <glyph glyph-name="numbersign" unicode="#" horiz-adv-x="885" 
d="M755 544c33 0 60 -26 60 -59s-27 -60 -60 -60h-109l-23 -144h91c33 0 60 -27 60 -60s-27 -60 -60 -60h-109l-17 -110c-5 -29 -30 -50 -59 -50c-3 0 -6 0 -10 1c-32 5 -54 35 -49 68l14 91h-143l-17 -110c-5 -29 -30 -50 -59 -50c-3 0 -6 0 -9 1c-33 5 -55 35 -50 68
l14 91h-90c-33 0 -60 27 -60 60s27 60 60 60h109l22 144h-90c-33 0 -60 27 -60 60s27 59 60 59h109l17 110c5 33 36 55 68 50c33 -5 55 -35 50 -68l-14 -92h143l17 110c5 33 35 55 68 50s55 -35 50 -68l-14 -92h90zM503 281l22 144h-143l-22 -144h143z" />
    <glyph glyph-name="dollar" unicode="$" 
d="M611 421c116 0 210 -94 210 -210s-94 -210 -210 -210h-102v-135c0 -35 -28 -63 -63 -63s-64 28 -64 63v135h-206c-35 0 -63 28 -63 64c0 35 28 63 63 63h206v166h-102c-115 0 -210 95 -210 210c0 116 95 211 210 211h102v96c0 35 29 64 64 64s63 -29 63 -64v-96h206
c35 0 64 -29 64 -64s-29 -63 -64 -63h-206v-167h102zM280 421h102v167h-102c-45 0 -83 -38 -83 -84c0 -45 38 -83 83 -83zM611 128c46 0 83 37 83 83s-37 83 -83 83h-102v-166h102z" />
    <glyph glyph-name="percent" unicode="%" horiz-adv-x="807" 
d="M716 698c26 -24 28 -64 4 -90l-539 -586c-13 -14 -30 -21 -47 -21c-15 0 -31 6 -43 17c-26 24 -27 64 -4 90l539 586c24 26 64 28 90 4zM607 268c72 0 130 -58 130 -130s-58 -130 -130 -130s-130 58 -130 130s58 130 130 130zM323 577c0 -69 -57 -126 -126 -126
c-70 0 -126 57 -126 126c0 70 56 127 126 127c69 0 126 -57 126 -127z" />
    <glyph glyph-name="asciicircum" unicode="^" horiz-adv-x="751" 
d="M669 374c18 -23 14 -56 -9 -74c-10 -7 -21 -11 -32 -11c-16 0 -31 7 -41 20l-212 269l-211 -269c-10 -13 -25 -20 -41 -20c-11 0 -23 4 -32 11c-23 18 -27 51 -9 74l252 320c19 27 63 27 83 0z" />
    <glyph glyph-name="ampersand" unicode="&#x26;" horiz-adv-x="997" 
d="M863 422c35 0 64 -28 64 -64c0 -35 -29 -63 -64 -63h-68v-230c0 -36 -28 -64 -63 -64h-452c-116 0 -210 94 -210 210v1c0 80 45 150 111 185c-19 32 -30 68 -30 108c0 56 22 109 62 148c39 40 92 62 148 62h371c35 0 63 -29 63 -64s-28 -63 -63 -63h-371
c-22 0 -43 -9 -58 -25c-16 -15 -25 -36 -25 -58c0 -46 38 -83 83 -83h502zM668 128v167h-388c-46 0 -83 -37 -83 -83v-1c0 -46 37 -83 83 -83h388z" />
    <glyph glyph-name="asterisk" unicode="*" horiz-adv-x="499" 
d="M375 602c21 7 44 -5 51 -26s-5 -43 -26 -50l-86 -28l53 -73c13 -18 9 -43 -9 -56c-7 -5 -15 -8 -23 -8c-13 0 -25 6 -33 17l-53 73l-53 -73c-8 -11 -20 -17 -33 -17c-8 0 -16 3 -23 8c-18 13 -22 38 -9 56l53 73l-86 28c-21 7 -32 29 -25 50c6 21 29 33 50 26l86 -28v91
c0 22 18 40 40 40s40 -18 40 -40v-91z" />
    <glyph glyph-name="parenleft" unicode="(" horiz-adv-x="419" 
d="M303 59c86 -47 35 -136 -35 -115c-9 3 -59 20 -108 83c-27 35 -48 78 -63 127c-18 59 -27 127 -27 204v0c0 77 9 145 27 204c15 49 36 92 63 127c49 62 99 80 108 83c70 21 121 -68 35 -115c0 0 -26 -10 -53 -49s-60 -114 -60 -250s33 -211 60 -250s53 -49 53 -49z" />
    <glyph glyph-name="parenright" unicode=")" horiz-adv-x="419" 
d="M116 657c-86 47 -36 136 35 115c9 -3 59 -21 107 -83c27 -35 49 -78 64 -127c18 -59 27 -127 27 -204v0c0 -77 -9 -145 -27 -204c-15 -49 -37 -92 -64 -127c-48 -63 -98 -80 -107 -83c-71 -21 -121 68 -35 115c0 0 26 10 53 49s60 114 60 250s-33 211 -60 250
s-53 49 -53 49z" />
    <glyph glyph-name="underscore" unicode="_" horiz-adv-x="744" 
d="M614 61c33 0 60 -27 60 -60s-27 -60 -60 -60h-484c-33 0 -60 27 -60 60s27 60 60 60h484z" />
    <glyph glyph-name="hyphen" unicode="-" horiz-adv-x="608" 
d="M478 418c33 0 60 -27 60 -60s-27 -60 -60 -60h-348c-33 0 -60 27 -60 60s27 60 60 60h348z" />
    <glyph glyph-name="plus" unicode="+" horiz-adv-x="735" 
d="M605 418c34 0 60 -27 60 -60s-26 -60 -60 -60h-177v-178c0 -33 -27 -60 -60 -60s-60 27 -60 60v178h-178c-33 0 -60 27 -60 60s27 60 60 60h178v177c0 33 27 60 60 60s60 -27 60 -60v-177h177z" />
    <glyph glyph-name="equal" unicode="=" horiz-adv-x="712" 
d="M582 556c33 0 60 -27 60 -60s-27 -60 -60 -60h-452c-33 0 -60 27 -60 60s27 60 60 60h452zM582 284c33 0 60 -27 60 -60c0 -34 -27 -60 -60 -60h-452c-33 0 -60 26 -60 60c0 33 27 60 60 60h452z" />
    <glyph glyph-name="bracketleft" unicode="[" horiz-adv-x="480" 
d="M350 655h-130v-594h130c33 0 60 -27 60 -60s-27 -60 -60 -60h-190c-33 0 -60 27 -60 60v714c0 33 27 60 60 60h190c33 0 60 -27 60 -60c0 -34 -27 -60 -60 -60z" />
    <glyph glyph-name="bracketright" unicode="]" horiz-adv-x="480" 
d="M320 775c33 0 60 -27 60 -60v-714c0 -33 -27 -60 -60 -60h-190c-33 0 -60 27 -60 60s27 60 60 60h130v594h-130c-33 0 -60 26 -60 60c0 33 27 60 60 60h190z" />
    <glyph glyph-name="braceleft" unicode="{" horiz-adv-x="586" 
d="M326 609v-502c0 -25 21 -46 46 -46h84c33 0 60 -27 60 -60s-27 -60 -60 -60h-84c-92 0 -166 75 -166 166v191h-76c-33 0 -60 27 -60 60s27 60 60 60h76v191c0 91 74 166 166 166h84c33 0 60 -27 60 -60c0 -34 -27 -60 -60 -60h-84c-25 0 -46 -21 -46 -46z" />
    <glyph glyph-name="braceright" unicode="}" horiz-adv-x="586" 
d="M456 418c33 0 60 -27 60 -60s-27 -60 -60 -60h-76v-191c0 -91 -75 -166 -166 -166h-84c-34 0 -60 27 -60 60s26 60 60 60h84c25 0 46 21 46 46v502c0 25 -21 46 -46 46h-84c-34 0 -60 26 -60 60c0 33 26 60 60 60h84c91 0 166 -75 166 -166v-191h76z" />
    <glyph glyph-name="bar" unicode="|" horiz-adv-x="267" 
d="M133 763c35 0 64 -29 64 -64v-846c0 -36 -29 -64 -64 -64s-63 28 -63 64v846c0 35 28 64 63 64z" />
    <glyph glyph-name="slash" unicode="/" horiz-adv-x="572" 
d="M467 708c31 -17 44 -55 27 -86l-303 -587c-11 -21 -34 -34 -57 -34c-9 0 -19 2 -29 7c-31 16 -43 55 -27 86l303 586c17 31 55 44 86 28z" />
    <glyph glyph-name="less" unicode="&#x3c;" horiz-adv-x="469" 
d="M200 380c-9 -8 -10 -17 -10 -22s1 -14 10 -22l180 -168c24 -23 25 -61 3 -85c-12 -12 -28 -19 -44 -19c-15 0 -30 5 -41 16l-180 168c-31 28 -48 68 -48 110c0 41 17 81 48 109l180 168c24 23 62 22 85 -3c22 -24 21 -62 -3 -84z" />
    <glyph glyph-name="greater" unicode="&#x3e;" horiz-adv-x="470" 
d="M352 467c30 -28 48 -68 48 -109c0 -42 -18 -82 -48 -110l-180 -168c-12 -11 -26 -16 -41 -16c-16 0 -32 7 -44 19c-23 24 -21 62 3 85l180 168c8 8 10 17 10 22s-2 14 -10 22l-180 168c-24 22 -26 60 -3 84c23 25 61 26 85 3z" />
    <glyph glyph-name="question" unicode="?" horiz-adv-x="710" 
d="M431 715c115 0 209 -95 209 -210c0 -116 -94 -210 -209 -210h-234v-23c0 -35 -28 -63 -63 -63s-64 28 -64 63v86c0 36 29 64 64 64h297c45 0 82 37 82 83c0 45 -37 82 -82 82h-297c-35 0 -64 29 -64 64s29 64 64 64h297zM150 161c44 0 80 -36 80 -80s-36 -80 -80 -80
s-80 36 -80 80s36 80 80 80z" />
    <glyph glyph-name="colon" unicode=":" horiz-adv-x="300" 
d="M150 161c44 0 80 -36 80 -80s-36 -80 -80 -80s-80 36 -80 80s36 80 80 80zM150 635c44 0 80 -36 80 -80c0 -45 -36 -80 -80 -80s-80 35 -80 80c0 44 36 80 80 80z" />
    <glyph glyph-name="semicolon" unicode=";" horiz-adv-x="324" 
d="M217 113c9 -12 16 -25 22 -39c11 -27 16 -56 14 -84c-1 -29 -9 -56 -22 -81c-7 -12 -15 -23 -25 -34c-9 -10 -20 -20 -32 -27c-19 -12 -44 -7 -56 12c-11 17 -8 39 6 52l2 2c10 9 18 21 22 34c5 14 6 28 5 42c-2 13 -7 26 -13 36c-7 11 -16 19 -27 25
c-28 17 -38 54 -21 83s54 38 83 21l9 -6l3 -3c11 -10 21 -21 30 -33zM150 475c-44 0 -80 35 -80 80c0 44 36 80 80 80s80 -36 80 -80c0 -45 -36 -80 -80 -80z" />
    <glyph glyph-name="period" unicode="." horiz-adv-x="300" 
d="M150 161c44 0 80 -36 80 -80s-36 -80 -80 -80s-80 36 -80 80s36 80 80 80z" />
    <glyph glyph-name="comma" unicode="," horiz-adv-x="311" 
d="M204 113c62 -81 44 -210 -43 -265c-41 -27 -85 32 -49 64c11 10 19 22 24 36c8 26 5 57 -9 78c-7 11 -16 19 -26 25c-29 17 -39 54 -22 83c40 56 94 25 125 -21z" />
    <glyph glyph-name="quotesingle" unicode="'" horiz-adv-x="260" 
d="M130 831c33 0 60 -27 60 -60v-159c0 -34 -27 -60 -60 -60s-60 26 -60 60v159c0 33 27 60 60 60z" />
    <glyph glyph-name="quotedbl" unicode="&#x22;" horiz-adv-x="495" 
d="M425 771v-159c0 -34 -27 -60 -60 -60s-60 26 -60 60v159c0 33 27 60 60 60s60 -27 60 -60zM190 612c0 -34 -27 -60 -60 -60s-60 26 -60 60v159c0 33 27 60 60 60s60 -27 60 -60v-159z" />
    <glyph glyph-name="plusminus" unicode="&#xb1;" horiz-adv-x="629" 
d="M134 388c-35 0 -64 29 -64 64s29 64 64 64h117v117c0 35 29 63 64 63s63 -28 63 -63v-117h117c36 0 64 -29 64 -64s-28 -64 -64 -64h-117v-117c0 -35 -28 -63 -63 -63s-64 28 -64 63v117h-117zM495 128c36 0 64 -28 64 -63c0 -36 -28 -64 -64 -64h-361
c-35 0 -64 28 -64 64c0 35 29 63 64 63h361z" />
    <glyph glyph-name="backslash" unicode="\" horiz-adv-x="572" 
d="M191 680l303 -586c16 -31 4 -70 -27 -86c-10 -5 -20 -7 -29 -7c-23 0 -46 13 -57 34l-303 587c-16 31 -4 69 27 86c31 16 69 3 86 -28z" />
    <glyph glyph-name="quoteleft" unicode="&#x2018;" horiz-adv-x="260" 
d="M130 831c33 0 60 -27 60 -60v-159c0 -34 -27 -60 -60 -60s-60 26 -60 60v159c0 33 27 60 60 60z" />
    <glyph glyph-name="quoteright" unicode="&#x2019;" horiz-adv-x="260" 
d="M130 831c33 0 60 -27 60 -60v-159c0 -34 -27 -60 -60 -60s-60 26 -60 60v159c0 33 27 60 60 60z" />
    <glyph glyph-name="quotedblleft" unicode="&#x201c;" horiz-adv-x="494" 
d="M130 831c33 0 60 -27 60 -60v-159c0 -34 -27 -60 -60 -60c-34 0 -60 26 -60 60v159c0 33 26 60 60 60zM364 831c34 0 60 -27 60 -60v-159c0 -34 -26 -60 -60 -60c-33 0 -60 26 -60 60v159c0 33 27 60 60 60z" />
    <glyph glyph-name="quotedblright" unicode="&#x201d;" horiz-adv-x="494" 
d="M130 831c33 0 60 -27 60 -60v-159c0 -34 -27 -60 -60 -60c-34 0 -60 26 -60 60v159c0 33 26 60 60 60zM364 831c34 0 60 -27 60 -60v-159c0 -34 -26 -60 -60 -60c-33 0 -60 26 -60 60v159c0 33 27 60 60 60z" />
    <glyph glyph-name="quotesinglbase" unicode="&#x201a;" horiz-adv-x="260" 
d="M130 161c33 0 60 -27 60 -60v-159c0 -33 -27 -60 -60 -60s-60 27 -60 60v159c0 33 27 60 60 60z" />
    <glyph glyph-name="quotedblbase" unicode="&#x201e;" horiz-adv-x="494" 
d="M130 161c33 0 60 -27 60 -60v-159c0 -33 -27 -60 -60 -60c-34 0 -60 27 -60 60v159c0 33 26 60 60 60zM364 161c34 0 60 -27 60 -60v-159c0 -33 -26 -60 -60 -60c-33 0 -60 27 -60 60v159c0 33 27 60 60 60z" />
    <glyph glyph-name="AE" unicode="&#xc6;" horiz-adv-x="1491" 
d="M556 587c-76 0 -146 -42 -180 -110l-29 -56h1011c35 0 63 -28 63 -63s-28 -64 -63 -64h-560v-166h560c35 0 63 -28 63 -63c0 -36 -28 -64 -63 -64h-624c-35 0 -64 28 -64 64v229h-388l-131 -258c-12 -22 -34 -35 -57 -35c-10 0 -20 2 -29 7c-31 16 -44 54 -28 85l225 441
c28 55 70 100 122 132s112 49 172 49h178v0h624c35 0 63 -29 63 -64s-28 -64 -63 -64h-624v0h-178z" />
    <glyph glyph-name="OE" unicode="&#x152;" horiz-adv-x="1592" 
d="M1522 651c0 -35 -29 -64 -64 -64h-640c23 -27 41 -58 55 -92c9 -23 16 -48 20 -74h565c35 0 64 -28 64 -63s-29 -64 -64 -64h-565c-4 -25 -11 -50 -20 -74c-14 -34 -32 -65 -55 -92h640c35 0 64 -28 64 -63c0 -36 -29 -64 -64 -64h-999c-117 0 -217 36 -287 104
c-33 32 -59 71 -76 115c-17 43 -26 89 -26 138c0 48 9 95 26 137c17 44 43 83 76 116c70 68 170 104 287 104h999c35 0 64 -29 64 -64zM509 128c162 0 262 88 262 230c0 141 -100 229 -262 229h-50c-161 0 -261 -88 -261 -229c0 -142 100 -230 261 -230h50z" />
    <glyph glyph-name="ae" unicode="&#xe6;" horiz-adv-x="1514" 
d="M1234 294h-413v-47c0 -66 53 -119 118 -119h389c35 0 63 -28 63 -63c0 -36 -28 -64 -63 -64h-389c-65 0 -127 26 -173 72c-47 46 -72 108 -72 174v47h-414c-46 0 -83 -37 -83 -83s37 -83 83 -83h223c35 0 64 -28 64 -63c0 -36 -29 -64 -64 -64h-223
c-116 0 -210 94 -210 210s94 210 210 210h414v55c0 62 -50 111 -112 111h-396c-35 0 -63 29 -63 64s28 64 63 64h396c64 0 124 -25 169 -70c3 -3 6 -6 9 -10c2 3 4 5 6 7c47 47 109 73 175 73h293c116 0 210 -95 210 -211c0 -115 -94 -210 -210 -210zM821 467v-46h413
c46 0 83 38 83 83c0 46 -37 83 -83 83h-293c-66 0 -120 -54 -120 -120z" />
    <glyph glyph-name="oe" unicode="&#x153;" horiz-adv-x="1591" 
d="M1311 294h-414v-47c0 -66 53 -119 119 -119h388c35 0 64 -28 64 -63c0 -36 -29 -64 -64 -64h-388c-66 0 -128 26 -174 72c-13 13 -25 28 -35 44l-12 -12c-70 -68 -169 -104 -286 -104h-51c-117 0 -216 36 -286 104c-34 32 -60 71 -77 115c-17 43 -25 89 -25 138
c0 48 8 95 25 137c17 44 43 83 77 116c70 68 169 104 286 104h51c117 0 216 -36 286 -104c4 -4 8 -9 12 -13c10 16 22 31 36 44c46 47 109 73 175 73h293c116 0 210 -95 210 -211c0 -115 -94 -210 -210 -210zM897 467v-46h414c46 0 83 38 83 83c0 46 -37 83 -83 83h-293
c-67 0 -121 -54 -121 -120zM509 128c161 0 261 88 261 230c0 141 -100 229 -261 229h-51c-161 0 -261 -88 -261 -229c0 -142 100 -230 261 -230h51z" />
    <glyph glyph-name="Thorn" unicode="&#xde;" 
d="M576 603c65 0 127 -26 173 -72s72 -108 72 -173c0 -66 -26 -127 -72 -173c-46 -47 -108 -72 -173 -72h-379v-48c0 -36 -29 -64 -64 -64s-63 28 -63 64v586c0 35 28 64 63 64s64 -29 64 -64v-48h379zM576 240c65 0 118 53 118 118s-53 118 -118 118h-379v-236h379z" />
    <glyph glyph-name="germandbls" unicode="&#xdf;" 
d="M707 398c68 -35 114 -106 114 -187c0 -116 -94 -210 -210 -210h-236c-35 0 -63 28 -63 64c0 35 28 63 63 63h236c46 0 83 37 83 83s-37 83 -83 83h-211c-35 0 -63 29 -63 64s28 63 63 63h126c46 0 83 38 83 83c0 46 -37 83 -83 83h-186c-78 0 -143 -64 -143 -143v-464
c0 -35 -28 -64 -63 -64s-64 29 -64 64v464c0 73 28 140 79 191c51 52 119 80 191 80h186c116 0 210 -95 210 -211c0 -38 -10 -75 -29 -106z" />
    <glyph glyph-name="thorn" unicode="&#xfe;" 
d="M576 603c65 0 127 -26 173 -72s72 -108 72 -173c0 -66 -26 -127 -72 -173c-46 -47 -108 -72 -173 -72h-379v-48c0 -36 -29 -64 -64 -64s-63 28 -63 64v586c0 35 28 64 63 64s64 -29 64 -64v-48h379zM576 240c65 0 117 53 117 118s-52 118 -117 118h-379v-236h379z" />
    <glyph glyph-name="Euro" unicode="&#x20ac;" horiz-adv-x="1062" 
d="M597 587c-66 0 -126 -28 -168 -73h462c36 0 64 -28 64 -63c0 -36 -28 -64 -64 -64h-521c-2 -10 -2 -19 -2 -29c0 -7 0 -14 1 -21h522c36 0 64 -29 64 -64s-28 -63 -64 -63h-469c42 -50 105 -82 175 -82h331c35 0 64 -28 64 -63c0 -36 -29 -64 -64 -64h-331
c-48 0 -94 9 -138 28c-43 18 -81 44 -114 77c-30 30 -54 65 -72 104h-139c-35 0 -64 28 -64 63s29 64 64 64h107v21c0 10 0 19 1 29h-108c-35 0 -64 28 -64 64c0 35 29 63 64 63h143c17 36 40 68 68 96c33 33 71 59 114 77c44 18 90 28 138 28h331c35 0 64 -29 64 -64
s-29 -64 -64 -64h-331z" />
    <glyph glyph-name="cent" unicode="&#xa2;" 
d="M758 587h-196v-459h196c35 0 63 -28 63 -63c0 -36 -28 -64 -63 -64h-196v-135c0 -35 -28 -63 -63 -63s-64 28 -64 63v135h-8c-48 0 -95 9 -139 28c-42 18 -80 44 -113 77c-33 32 -59 70 -77 113c-18 44 -28 91 -28 139s10 95 28 139c18 42 44 80 77 113s71 59 113 77
c44 18 91 28 139 28h8v96c0 35 29 64 64 64s63 -29 63 -64v-96h196c35 0 63 -29 63 -64s-28 -64 -63 -64zM435 128v459h-8c-127 0 -230 -103 -230 -229c0 -127 103 -230 230 -230h8z" />
    <glyph glyph-name="sterling" unicode="&#xa3;" horiz-adv-x="1083" 
d="M949 128c35 0 64 -28 64 -63c0 -36 -29 -64 -64 -64h-513v0h-1h-301c-35 0 -64 28 -64 64c0 35 29 63 64 63h203c-5 12 -11 25 -16 38c-21 56 -37 108 -47 154h-140c-35 0 -64 28 -64 63c0 36 29 64 64 64h129c6 72 36 137 88 184c60 55 145 84 245 84h353
c35 0 64 -29 64 -64s-29 -64 -64 -64h-353c-68 0 -123 -17 -159 -50c-26 -23 -41 -54 -46 -90h500c35 0 64 -28 64 -64c0 -35 -29 -63 -64 -63h-486c18 -70 48 -144 70 -192h474z" />
    <glyph glyph-name="yen" unicode="&#xa5;" horiz-adv-x="892" 
d="M758 266c35 0 64 -29 64 -64s-29 -63 -64 -63h-248v-74c0 -36 -29 -64 -64 -64s-63 28 -63 64v74h-249c-35 0 -63 28 -63 63s28 64 63 64h249v15c-35 7 -69 20 -100 39c-49 31 -89 74 -115 125l-90 177c-16 32 -4 70 28 86c31 16 69 3 85 -28l90 -177
c32 -63 95 -102 165 -102c71 0 134 39 166 102l90 177c15 31 54 44 85 28s44 -54 28 -86l-90 -177c-26 -51 -66 -94 -115 -125c-31 -19 -65 -32 -100 -39v-15h248z" />
    <glyph glyph-name="lira" unicode="&#x20a4;" horiz-adv-x="1119" 
d="M986 128c35 0 63 -28 63 -63c0 -36 -28 -64 -63 -64h-514v0v0h-302c-35 0 -63 28 -63 64c0 35 28 63 63 63h203c-5 12 -10 25 -15 38c-6 15 -11 29 -16 44h-209c-35 0 -63 28 -63 63s28 64 63 64h174c-3 17 -5 34 -7 50h-167c-35 0 -63 28 -63 64c0 35 28 63 63 63h173
c7 37 21 75 46 109c24 30 55 54 93 69s81 23 133 23h408c35 0 63 -29 63 -64s-28 -64 -63 -64h-408c-93 0 -117 -31 -125 -42c-6 -8 -11 -18 -16 -31h454c35 0 64 -28 64 -63c0 -36 -29 -64 -64 -64h-463c2 -16 5 -33 9 -50h454c35 0 64 -29 64 -64s-29 -63 -64 -63h-414
c12 -31 24 -59 35 -82h474z" />
    <glyph glyph-name="foursuperior" unicode="&#x2074;" horiz-adv-x="514" 
d="M355 715c49 0 89 -40 89 -89v-228c0 -22 -18 -40 -40 -40s-40 18 -40 40v30h-254c-17 0 -31 10 -37 25c-6 16 -2 33 10 44l212 194c17 15 38 24 60 24zM364 508v118c0 5 -4 9 -9 9c-2 0 -4 -1 -6 -3l-136 -124h151z" />
    <glyph glyph-name="fivesuperior" unicode="&#x2075;" horiz-adv-x="515" 
d="M336 577c60 0 109 -49 109 -110v0c0 -60 -49 -109 -109 -109h-226c-22 0 -40 18 -40 40s18 40 40 40h226c16 0 29 13 29 29v0c0 17 -13 30 -29 30h-221c-11 0 -21 4 -29 12s-11 19 -11 30l10 139c2 20 19 37 40 37h260c22 0 40 -18 40 -40s-18 -40 -40 -40h-222l-5 -58
h178z" />
    <glyph glyph-name="sixsuperior" unicode="&#x2076;" horiz-adv-x="515" 
d="M335 576c61 0 110 -49 110 -109s-49 -109 -110 -109h-138c-70 0 -127 57 -127 127v104c0 69 57 126 126 126h184c22 0 40 -18 40 -40s-18 -40 -40 -40h-184c-25 0 -46 -21 -46 -46v-13h185zM335 438c16 0 30 13 30 29s-14 29 -30 29h-185v-11c0 -26 21 -47 47 -47h138z
" />
    <glyph glyph-name="sevensuperior" unicode="&#x2077;" horiz-adv-x="515" 
d="M404 715c16 0 30 -10 37 -24c6 -15 3 -32 -7 -43l-255 -277c-8 -9 -19 -13 -29 -13s-20 3 -27 10c-17 15 -18 41 -3 57l193 210h-203c-22 0 -40 18 -40 40s18 40 40 40h294z" />
    <glyph glyph-name="eightsuperior" unicode="&#x2078;" horiz-adv-x="514" 
d="M337 715c59 0 107 -49 107 -108v-3c0 -26 -9 -50 -24 -68c15 -19 24 -43 24 -69c0 -60 -49 -109 -109 -109h-156c-60 0 -109 49 -109 109c0 26 9 50 24 69c-15 18 -24 42 -24 68v3c0 59 48 108 107 108h160zM150 607v-3c0 -15 12 -28 27 -28h160c15 0 27 13 27 28v3
c0 15 -12 28 -27 28h-160c-15 0 -27 -13 -27 -28zM335 438c16 0 29 13 29 29s-13 29 -29 29h-156c-16 0 -29 -13 -29 -29s13 -29 29 -29h156z" />
    <glyph glyph-name="ninesuperior" unicode="&#x2079;" horiz-adv-x="515" 
d="M318 715c70 0 127 -57 127 -127v-104c0 -70 -57 -126 -126 -126h-184c-22 0 -40 18 -40 40s18 40 40 40h184c25 0 46 20 46 46v12h-186c-60 0 -109 49 -109 109c0 61 49 110 109 110h139zM365 576v12c0 26 -21 47 -47 47h-139c-16 0 -29 -13 -29 -30c0 -16 13 -29 29 -29
h186z" />
    <glyph glyph-name="zerosuperior" unicode="&#x2070;" horiz-adv-x="551" 
d="M429 663c34 -32 52 -77 52 -127c0 -49 -18 -94 -52 -127c-36 -33 -85 -51 -144 -51h-19c-59 0 -108 18 -144 51c-33 33 -52 78 -52 127c0 50 19 95 52 127c36 34 85 52 144 52h19c59 0 108 -18 144 -52zM285 438c72 0 116 38 116 98c0 61 -44 99 -116 99h-19
c-72 0 -116 -38 -116 -99c0 -60 44 -98 116 -98h19z" />
    <glyph glyph-name="threesuperior" unicode="&#xb3;" horiz-adv-x="515" 
d="M383 565c36 -17 61 -55 61 -98v0c0 -60 -49 -109 -109 -109h-225c-23 0 -40 18 -40 40s17 40 40 40h225c16 0 29 13 29 29v0c0 17 -13 30 -29 30h-195c-23 0 -40 17 -40 40c0 22 17 40 40 40h156l36 58h-222c-23 0 -40 18 -40 40s17 40 40 40h294c15 0 28 -8 35 -21
s7 -28 -1 -40z" />
    <glyph glyph-name="twosuperior" unicode="&#xb2;" horiz-adv-x="514" 
d="M179 495c-16 0 -29 -13 -29 -29v-28h254c22 0 40 -18 40 -40s-18 -40 -40 -40h-294c-22 0 -40 18 -40 40v68c0 60 49 109 109 109h155c17 0 30 14 30 30s-13 30 -30 30h-204c-22 0 -40 18 -40 40s18 40 40 40h204c61 0 110 -50 110 -110c0 -61 -49 -110 -110 -110h-155z
" />
    <glyph glyph-name="onesuperior" unicode="&#xb9;" horiz-adv-x="435" 
d="M325 438c22 0 40 -18 40 -40s-18 -40 -40 -40h-214c-23 0 -40 18 -40 40s17 40 40 40h67v179l-53 -20c-21 -8 -44 3 -52 24c-8 20 3 43 24 51l107 40c12 5 26 3 37 -4c10 -8 17 -20 17 -33v-237h67z" />
    <glyph glyph-name="degree" unicode="&#xb0;" horiz-adv-x="515" 
d="M258 879c103 0 187 -84 187 -187s-84 -187 -187 -187c-104 0 -188 84 -188 187s84 187 188 187zM258 605c48 0 87 39 87 87s-39 87 -87 87c-49 0 -88 -39 -88 -87s39 -87 88 -87z" />
    <glyph glyph-name="currency" unicode="&#xa4;" horiz-adv-x="778" 
d="M690 646c23 -24 23 -62 0 -85l-85 -85c20 -34 31 -75 31 -118s-11 -84 -31 -118l85 -85c23 -23 23 -61 0 -85c-12 -12 -27 -17 -43 -17c-15 0 -30 5 -42 17l-88 88c-36 -19 -80 -29 -128 -29s-92 10 -128 29l-88 -88c-12 -12 -27 -17 -42 -17c-16 0 -31 5 -43 17
c-23 24 -23 62 0 85l85 85c-20 34 -31 75 -31 118s11 84 31 118l-85 85c-23 23 -23 61 0 85c24 23 62 23 85 0l88 -88c36 19 80 29 128 29s92 -10 128 -29l88 88c23 23 61 23 85 0zM262 358c0 -68 47 -109 127 -109s127 41 127 109s-47 109 -127 109s-127 -41 -127 -109z
" />
    <glyph glyph-name="guillemotleft" unicode="&#xab;" horiz-adv-x="739" 
d="M380 168c24 -23 25 -61 3 -85c-12 -12 -28 -19 -44 -19c-15 0 -30 5 -41 16l-180 168c-30 28 -48 68 -48 110c0 41 18 81 48 109l180 168c24 23 62 22 85 -3c22 -24 21 -62 -3 -84l-180 -168c-9 -8 -10 -17 -10 -22s1 -14 10 -22zM649 168c24 -23 26 -61 3 -85
c-12 -12 -28 -19 -44 -19c-15 0 -29 5 -41 16l-180 168c-30 28 -47 68 -47 110c0 41 17 81 47 109l180 168c24 23 62 22 85 -3c23 -24 21 -62 -3 -84l-180 -168c-8 -8 -9 -17 -9 -22s1 -14 9 -22z" />
    <glyph glyph-name="guillemotright" unicode="&#xbb;" horiz-adv-x="738" 
d="M620 467c31 -28 48 -68 48 -109c0 -42 -17 -82 -48 -110l-180 -168c-11 -11 -26 -16 -41 -16c-16 0 -32 7 -43 19c-23 24 -22 62 2 85l180 168c9 8 10 17 10 22s-1 14 -10 22l-180 168c-24 22 -25 60 -2 84c22 25 60 26 84 3zM399 358c0 -42 -18 -82 -48 -110l-180 -168
c-12 -11 -26 -16 -41 -16c-16 0 -32 7 -44 19c-22 24 -21 62 3 85l180 168c8 8 10 17 10 22s-2 14 -10 22l-180 168c-24 22 -25 60 -3 84c23 25 61 26 85 3l180 -168c30 -28 48 -68 48 -109z" />
    <glyph glyph-name="guilsinglleft" unicode="&#x2039;" horiz-adv-x="469" 
d="M380 168c24 -23 25 -61 3 -85c-12 -12 -28 -19 -44 -19c-15 0 -29 5 -41 16l-180 168c-30 28 -48 68 -48 110c0 41 18 81 48 109l180 168c24 23 62 22 85 -3c22 -24 21 -62 -3 -84l-180 -168c-8 -8 -10 -17 -10 -22s2 -14 10 -22z" />
    <glyph glyph-name="guilsinglright" unicode="&#x203a;" horiz-adv-x="469" 
d="M352 467c30 -28 47 -68 47 -109c0 -42 -17 -82 -47 -110l-180 -168c-12 -11 -27 -16 -41 -16c-16 0 -32 7 -44 19c-23 24 -21 62 3 85l180 168c8 8 9 17 9 22s-1 14 -9 22l-180 168c-24 22 -26 60 -3 84c23 25 61 26 85 3z" />
    <glyph glyph-name="circumflex" unicode="&#x2c6;" horiz-adv-x="630" 
d="M532 685c28 -18 36 -56 18 -83c-12 -18 -31 -27 -50 -27c-12 0 -23 3 -33 9l-152 100l-152 -100c-10 -6 -22 -9 -33 -9c-19 0 -39 9 -50 27c-18 27 -11 65 17 83l184 120c20 14 48 14 68 0z" />
    <glyph glyph-name="tilde" unicode="&#x2dc;" horiz-adv-x="704" 
d="M599 644c-33 -45 -81 -69 -135 -69c-62 0 -107 30 -144 54c-34 22 -56 36 -85 36c-15 0 -25 -5 -33 -16c-9 -12 -12 -26 -12 -26v1c-30 -87 -135 -49 -118 21c1 6 7 37 28 68c31 46 79 72 135 72c66 0 114 -31 152 -56c32 -21 52 -34 77 -34c10 0 24 2 37 18
c10 13 14 28 14 28v-1c25 73 137 56 116 -30c-1 -6 -10 -35 -32 -66z" />
    <glyph glyph-name="bullet" unicode="&#x2022;" horiz-adv-x="394" 
d="M197 485c71 0 127 -57 127 -127s-56 -127 -127 -127c-70 0 -127 57 -127 127s57 127 127 127z" />
    <glyph glyph-name="periodcentered" unicode="&#xb7;" horiz-adv-x="331" 
d="M166 453c53 0 95 -42 95 -95s-42 -96 -95 -96s-96 43 -96 96s43 95 96 95z" />
    <glyph glyph-name="cedilla" unicode="&#xb8;" horiz-adv-x="390" 
d="M150 118c49 -17 94 -52 126 -99c34 -48 48 -102 42 -150c-6 -40 -25 -73 -57 -97c-31 -24 -72 -37 -123 -40h-3c-32 0 -58 24 -60 56c-2 33 24 62 57 63c25 2 45 7 56 16c7 5 10 10 11 18c2 18 -6 43 -22 66c-17 25 -42 45 -66 53c-31 11 -48 45 -37 76
c11 32 45 48 76 38z" />
    <glyph glyph-name="acute" unicode="&#xb4;" horiz-adv-x="368" 
d="M195 784c23 23 61 23 85 0c23 -24 23 -62 0 -85l-107 -107c-12 -11 -27 -17 -42 -17c-16 0 -31 5 -43 17c-23 24 -23 62 0 85z" />
    <glyph glyph-name="caron" unicode="&#x2c7;" horiz-adv-x="630" 
d="M467 806c28 18 65 10 83 -17c18 -28 10 -65 -17 -83l-185 -122c-20 -13 -46 -13 -66 0l-185 122c-27 18 -35 55 -17 83c18 27 56 35 83 17l152 -100z" />
    <glyph glyph-name="ring" unicode="&#x2da;" horiz-adv-x="534" 
d="M267 969c109 0 197 -88 197 -197s-88 -197 -197 -197s-197 88 -197 197s88 197 197 197zM267 695c43 0 77 34 77 77c0 42 -34 77 -77 77s-77 -35 -77 -77c0 -43 34 -77 77 -77z" />
    <glyph glyph-name="dotaccent" unicode="&#x2d9;" horiz-adv-x="339" 
d="M170 774c55 0 99 -45 99 -100s-44 -99 -99 -99s-100 44 -100 99s45 100 100 100z" />
    <glyph glyph-name="dieresis" unicode="&#xa8;" horiz-adv-x="502" 
d="M150 735c45 0 80 -36 80 -80c0 -45 -35 -80 -80 -80c-44 0 -80 35 -80 80c0 44 36 80 80 80zM352 735c44 0 80 -36 80 -80c0 -45 -36 -80 -80 -80s-80 35 -80 80c0 44 36 80 80 80z" />
    <glyph glyph-name="onequarter" unicode="&#xbc;" horiz-adv-x="897" 
d="M738 358c49 0 89 -40 89 -89v-228c0 -22 -18 -40 -40 -40s-40 18 -40 40v30h-255c-16 0 -31 10 -37 25c-6 16 -2 33 10 44l213 194c16 16 38 24 60 24zM747 151v118c0 5 -4 9 -9 9c-2 0 -5 -1 -6 -3l-137 -124h152zM365 391c0 -22 -18 -40 -40 -40h-214
c-22 0 -40 18 -40 40s18 40 40 40h67v179l-53 -20c-21 -7 -44 3 -52 24c-8 20 3 43 24 51l107 40c12 5 26 3 37 -4c10 -8 17 -20 17 -33v-237h67c22 0 40 -18 40 -40zM689 704c19 -12 25 -37 13 -55l-393 -625c-7 -12 -20 -18 -33 -18c-8 0 -15 2 -22 6
c-18 11 -24 36 -12 55l392 624c12 19 37 25 55 13z" />
    <glyph glyph-name="onehalf" unicode="&#xbd;" horiz-adv-x="1009" 
d="M364 391c0 -22 -17 -40 -40 -40h-214c-22 0 -40 18 -40 40s18 40 40 40h67v179l-53 -20c-21 -7 -44 3 -51 24c-8 20 2 43 23 51l107 40c13 5 26 3 37 -4c11 -8 17 -20 17 -33v-237h67c23 0 40 -18 40 -40zM674 138c-17 0 -30 -13 -30 -29v-28h255c22 0 40 -18 40 -40
s-18 -40 -40 -40h-295c-22 0 -40 18 -40 40v68c0 60 49 109 110 109h155c16 0 30 14 30 30s-14 30 -30 30h-205c-22 0 -40 18 -40 40s18 40 40 40h205c60 0 110 -49 110 -110c0 -60 -50 -110 -110 -110h-155zM689 704c19 -12 24 -37 12 -55l-392 -625
c-8 -12 -21 -18 -34 -18c-7 0 -15 2 -21 6c-19 11 -25 36 -13 55l393 624c11 19 36 25 55 13z" />
    <glyph glyph-name="threequarters" unicode="&#xbe;" horiz-adv-x="956" 
d="M797 358c49 0 89 -40 89 -89v-228c0 -22 -18 -40 -40 -40s-40 18 -40 40v30h-255c-16 0 -31 10 -37 25c-6 16 -2 33 10 44l213 194c16 16 37 24 60 24zM806 151v118c0 5 -4 9 -9 9c-3 0 -5 -1 -6 -3l-137 -124h152zM748 704c19 -12 25 -37 13 -55l-393 -625
c-7 -12 -20 -18 -34 -18c-7 0 -14 2 -21 6c-19 11 -24 36 -12 55l392 624c12 19 37 25 55 13zM445 460c0 -60 -49 -109 -109 -109h-226c-22 0 -40 18 -40 40s18 40 40 40h226c16 0 29 13 29 29v1c0 16 -13 29 -29 29h-196c-22 0 -40 17 -40 40c0 22 18 40 40 40h157l36 58
h-223c-22 0 -40 18 -40 40s18 40 40 40h295c14 0 28 -8 35 -21s6 -28 -1 -40l-55 -89c36 -17 61 -55 61 -97v-1z" />
    <glyph glyph-name="mu" unicode="&#xb5;" horiz-adv-x="726" 
d="M593 715c35 0 63 -29 63 -64v-448c0 -35 -28 -63 -63 -63s-64 28 -64 63v95c-48 -34 -106 -52 -166 -52s-117 18 -166 52v-233c0 -36 -28 -64 -63 -64c-36 0 -64 28 -64 64v586c0 35 28 64 64 64c35 0 63 -29 63 -64v-112c0 -91 75 -166 166 -166c92 0 166 75 166 166
v112c0 35 29 64 64 64z" />
    <glyph glyph-name="multiply" unicode="&#xd7;" horiz-adv-x="597" 
d="M509 232c24 -23 24 -61 0 -85c-23 -23 -61 -23 -84 0l-126 126l-126 -126c-23 -23 -61 -23 -85 0c-23 24 -23 62 0 85l126 126l-126 125c-23 24 -23 62 0 85c24 24 62 24 85 0l126 -125l126 125c23 24 61 24 84 0c24 -23 24 -61 0 -85l-125 -125z" />
    <glyph glyph-name="Oslash" unicode="&#xd8;" horiz-adv-x="1007" 
d="M858 722c20 17 50 14 67 -6c18 -20 15 -50 -5 -67l-78 -67c21 -26 38 -55 50 -87c17 -42 26 -89 26 -137c0 -49 -9 -95 -26 -138c-17 -44 -43 -83 -76 -115c-70 -68 -170 -104 -287 -104h-50c-95 0 -177 23 -242 67l-88 -74c-9 -8 -19 -11 -30 -11c-14 0 -27 5 -37 16
c-17 20 -14 51 6 68l78 66c-21 26 -38 55 -51 87c-16 43 -25 89 -25 138c0 48 9 95 25 137c18 44 44 83 77 116c70 68 169 104 287 104h50c94 0 177 -24 242 -68zM217 358c0 -57 16 -105 46 -142l405 344c-39 18 -86 28 -139 28h-50c-162 0 -262 -89 -262 -230zM791 358
c0 57 -17 105 -46 142l-405 -344c39 -18 85 -28 139 -28h50c161 0 262 88 262 230z" />
    <glyph glyph-name="oslash" unicode="&#xf8;" horiz-adv-x="1007" 
d="M858 722c20 17 50 14 67 -6s15 -50 -5 -67l-78 -67c21 -26 38 -55 50 -87c17 -42 26 -89 26 -137c0 -49 -9 -95 -26 -138c-17 -44 -43 -83 -77 -115c-70 -68 -169 -104 -286 -104h-50c-95 0 -177 23 -242 67l-88 -74c-9 -8 -20 -11 -30 -11c-14 0 -27 5 -37 16
c-17 20 -14 51 6 68l78 66c-21 26 -38 55 -51 87c-16 43 -25 89 -25 138c0 48 9 95 25 137c18 44 44 83 77 116c70 68 169 104 287 104h50c94 0 177 -24 242 -68zM217 358c0 -57 16 -105 46 -142l405 344c-39 18 -86 28 -139 28h-50c-162 0 -262 -89 -262 -230zM790 358
c0 57 -16 105 -45 142l-405 -344c38 -18 85 -28 139 -28h50c161 0 261 88 261 230z" />
    <glyph glyph-name="eth" unicode="&#xf0;" horiz-adv-x="968" 
d="M692 893c62 -71 111 -151 146 -237c40 -97 60 -197 60 -298c0 -49 -9 -95 -26 -138c-17 -44 -43 -83 -76 -115c-70 -68 -169 -104 -287 -104h-50c-118 0 -217 36 -287 104c-33 32 -59 71 -77 115c-16 43 -25 89 -25 138c0 48 9 95 25 137c18 44 44 83 77 116
c70 68 169 104 287 104h50c65 0 124 -11 176 -32c-30 54 -63 97 -89 127c-18 21 -36 40 -56 57l-127 -92c-11 -9 -24 -13 -37 -13c-20 0 -39 9 -52 27c-20 28 -14 68 14 88l95 70c-48 26 -94 41 -130 41c-35 0 -64 28 -64 64c0 35 29 63 64 63c74 0 159 -32 241 -88l114 84
c28 20 68 14 89 -14c21 -29 14 -68 -14 -89l-88 -64c16 -16 32 -33 47 -51zM509 128c161 0 262 88 262 230c0 141 -101 230 -262 230h-50c-162 0 -262 -89 -262 -230c0 -142 100 -230 262 -230h50z" />
    <glyph glyph-name="divide" unicode="&#xf7;" horiz-adv-x="687" 
d="M557 378c34 0 60 -27 60 -60s-26 -60 -60 -60h-427c-34 0 -60 27 -60 60s26 60 60 60h427zM343 161c45 0 80 -36 80 -80s-35 -80 -80 -80c-44 0 -80 36 -80 80s36 80 80 80zM343 475c-44 0 -80 35 -80 80c0 44 36 80 80 80c45 0 80 -36 80 -80c0 -45 -35 -80 -80 -80z
" />
    <glyph glyph-name="endash" unicode="&#x2013;" horiz-adv-x="628" 
d="M498 418c33 0 60 -27 60 -60s-27 -60 -60 -60h-368c-33 0 -60 27 -60 60s27 60 60 60h368z" />
    <glyph glyph-name="emdash" unicode="&#x2014;" horiz-adv-x="728" 
d="M598 418c33 0 60 -27 60 -60s-27 -60 -60 -60h-468c-33 0 -60 27 -60 60s27 60 60 60h468z" />
    <glyph glyph-name="A.1" unicode="&#xe001;" 
d="M728 622c29 -30 52 -64 68 -101c17 -40 25 -81 25 -124v-332c0 -36 -28 -64 -64 -64c-35 0 -63 28 -63 64v161h-337c-35 0 -64 29 -64 64s29 63 64 63h337v44c0 105 -86 191 -191 191h-115c-105 0 -191 -86 -191 -191v-332c0 -36 -28 -64 -63 -64c-36 0 -64 28 -64 64
v332c0 43 8 84 25 124c16 37 39 71 68 101c29 29 63 52 101 68c39 16 81 25 124 25h115c43 0 85 -9 124 -25c38 -16 72 -39 101 -68z" />
    <glyph glyph-name="B.1" unicode="&#xe002;" 
d="M611 715c116 0 210 -95 210 -210c0 -57 -22 -109 -59 -147c37 -37 59 -89 59 -146v-1c0 -116 -94 -210 -210 -210h-477c-35 0 -64 28 -64 64v586c0 35 29 64 64 64h477zM397 295c-35 0 -63 28 -63 63c0 36 28 64 63 64h214c46 0 83 37 83 83c0 45 -37 83 -83 83h-414
v-460h414c46 0 83 37 83 83v1c0 46 -37 83 -83 83h-214z" />
    <glyph glyph-name="D.1" unicode="&#xe003;" 
d="M716 610c33 -33 59 -71 77 -113c18 -44 28 -91 28 -139s-10 -95 -28 -139c-18 -43 -44 -81 -77 -114c-32 -32 -71 -58 -113 -76c-44 -19 -91 -28 -139 -28h-99c-35 0 -63 28 -63 64c0 35 28 63 63 63h99c127 0 230 103 230 230c0 126 -103 230 -230 230h-267v-523
c0 -36 -28 -64 -64 -64c-35 0 -63 28 -63 64v586c0 35 28 64 63 64h331c48 0 95 -10 139 -28c42 -18 81 -44 113 -77z" />
    <glyph glyph-name="E.1" unicode="&#xe004;" 
d="M757 715c35 0 64 -29 64 -64s-29 -63 -64 -63h-624c-35 0 -63 28 -63 63s28 64 63 64h624zM757 294h-560v-166h560c35 0 64 -28 64 -63c0 -36 -29 -64 -64 -64h-624c-35 0 -63 28 -63 64v293c0 35 28 63 63 63h624c35 0 64 -28 64 -63s-29 -64 -64 -64z" />
    <glyph glyph-name="F.1" unicode="&#xe005;" 
d="M757 588h-560v-167h560c36 0 64 -28 64 -63s-28 -64 -64 -64h-560v-229c0 -36 -28 -64 -63 -64s-64 28 -64 64v586c0 35 29 64 64 64h623c36 0 64 -29 64 -64s-28 -63 -64 -63z" />
    <glyph glyph-name="K.1" unicode="&#xe006;" horiz-adv-x="892" 
d="M573 360l232 -252c23 -26 22 -67 -4 -90c-13 -11 -28 -17 -43 -17c-17 0 -35 7 -47 21l-250 272h-264v-229c0 -36 -28 -64 -63 -64s-64 28 -64 64v586c0 35 29 64 64 64s63 -29 63 -64v-230h262l229 271c23 27 63 30 90 8c26 -23 30 -63 7 -90z" />
    <glyph glyph-name="P.1" unicode="&#xe007;" 
d="M579 715c65 0 126 -26 171 -71c46 -46 71 -106 71 -171s-25 -125 -71 -171c-45 -45 -106 -71 -171 -71h-212c-35 0 -64 29 -64 64s29 64 64 64h212c64 0 115 51 115 114s-51 115 -115 115h-382v-523c0 -36 -28 -64 -63 -64s-64 28 -64 64v586c0 35 29 64 64 64h445z" />
    <glyph glyph-name="R.1" unicode="&#xe008;" horiz-adv-x="909" 
d="M679 253l142 -144c24 -25 24 -65 -1 -90c-12 -12 -29 -18 -45 -18s-32 6 -45 19l-208 211h-155c-35 0 -64 29 -64 64s29 64 64 64h213c63 0 114 51 114 114s-51 115 -114 115h-383v-523c0 -36 -28 -64 -63 -64s-64 28 -64 64v586c0 35 29 64 64 64h446
c64 0 125 -26 170 -71c46 -46 71 -106 71 -171s-25 -125 -71 -171c-21 -21 -45 -37 -71 -49z" />
    <glyph glyph-name="W.1" unicode="&#xe009;" horiz-adv-x="1473" 
d="M1405 709c32 -15 46 -52 32 -84l-207 -453c-23 -51 -60 -94 -107 -125c-48 -30 -102 -46 -158 -46c-78 0 -151 30 -206 85c-8 8 -15 16 -22 25c-7 -9 -14 -17 -22 -25c-55 -55 -128 -85 -206 -85c-56 0 -111 16 -158 46c-47 31 -84 74 -108 125l-206 453
c-15 32 -1 69 31 84c32 14 70 0 85 -32l206 -453c27 -58 86 -96 150 -96c90 0 164 74 164 165v0v358c0 35 29 64 64 64v0c35 0 63 -29 63 -64v-358v0c0 -91 74 -165 165 -165c64 0 123 38 150 96l206 453c15 32 52 46 84 32z" />
    <glyph glyph-name="X.1" unicode="&#xe010;" horiz-adv-x="892" 
d="M801 111c26 -24 27 -64 3 -90c-13 -13 -30 -20 -47 -20c-15 0 -31 6 -43 17l-266 251l-263 -251c-12 -11 -28 -17 -44 -17c-17 0 -34 7 -46 20c-24 25 -23 65 2 90l258 245l-265 249c-25 24 -27 64 -3 90c24 25 65 26 90 2l270 -253l267 253c25 24 65 23 89 -2
c25 -26 24 -66 -2 -90l-261 -249z" />
    <glyph glyph-name="a.1" unicode="&#xe011;" 
d="M583 715c63 0 123 -25 168 -70s70 -105 70 -169v-411c0 -36 -28 -64 -63 -64h-478c-116 0 -210 94 -210 210s94 210 210 210h414v55c0 62 -50 112 -111 112h-396c-35 0 -64 28 -64 63s29 64 64 64h396zM197 211c0 -46 38 -83 83 -83h414v166h-414c-45 0 -83 -37 -83 -83z
" />
    <glyph glyph-name="e.1" unicode="&#xe012;" 
d="M280 588c-46 0 -83 -38 -83 -83v-2c0 -45 37 -82 83 -82h361c35 0 63 -29 63 -64s-28 -63 -63 -63h-361c-46 0 -83 -38 -83 -83c0 -46 37 -83 83 -83h477c35 0 64 -28 64 -63c0 -36 -29 -64 -64 -64h-477c-116 0 -210 94 -210 210c0 57 22 108 59 146
c-37 38 -59 90 -59 146v2c0 115 94 210 210 210h477c35 0 64 -29 64 -64s-29 -63 -64 -63h-477z" />
    <glyph glyph-name="m.1" unicode="&#xe013;" horiz-adv-x="1269" 
d="M1180 525c13 -35 19 -74 19 -114v-346c0 -36 -29 -64 -64 -64s-63 28 -63 64v346c0 41 -13 177 -169 177h-36c-157 0 -169 -136 -169 -177v-346c0 -36 -28 -64 -64 -64c-35 0 -63 28 -63 64v346c0 41 -12 177 -169 177h-36c-157 0 -169 -136 -169 -177v-346
c0 -36 -28 -64 -63 -64s-64 28 -64 64v346c0 40 6 79 19 114c12 38 32 71 57 99c53 59 130 91 220 91h36c91 0 167 -32 220 -91c5 -5 9 -10 12 -15l12 15c54 59 130 91 221 91h36c90 0 167 -32 220 -91c25 -28 44 -61 57 -99z" />
    <glyph glyph-name="Q.1" unicode="&#xe014;" horiz-adv-x="967" 
d="M872 220c-17 -44 -43 -83 -77 -115c-40 -39 -90 -68 -147 -85l67 -51h119c35 0 63 -28 63 -63s-28 -64 -63 -64h-141c-13 0 -27 5 -38 13l-193 146h-4c-117 0 -216 36 -286 104c-34 32 -59 71 -77 115c-17 43 -25 89 -25 138c0 48 8 95 25 137c18 44 43 83 77 116
c70 68 169 104 286 104h51c117 0 216 -36 286 -104c34 -33 60 -72 77 -116c17 -42 25 -89 25 -137c0 -49 -8 -95 -25 -138zM509 128c161 0 261 88 261 230c0 141 -100 230 -261 230h-51c-161 0 -261 -89 -261 -230c0 -142 100 -230 261 -230h26v0h25z" />
    <glyph glyph-name="E_B" unicode="&#xe015;" horiz-adv-x="1843" 
d="M1773 505c0 -57 -23 -109 -59 -147c36 -37 59 -89 59 -146v-1c0 -116 -94 -210 -210 -210h-477h-7c-22 3 -41 17 -51 36c0 1 0 2 -1 3l-3 9c-1 5 -2 10 -2 16v293c0 6 1 11 2 16l3 9c1 1 1 2 1 3c10 19 29 33 51 36h7h477c46 0 83 37 83 83c0 45 -37 83 -83 83h-1366
v-167h560c35 0 64 -28 64 -63s-29 -64 -64 -64h-560v-166h560c35 0 64 -28 64 -63c0 -36 -29 -64 -64 -64h-624c-35 0 -63 28 -63 64v586c0 35 28 64 63 64h1430c116 0 210 -95 210 -210zM1646 211v1c0 46 -37 83 -83 83h-414v-167h414c46 0 83 37 83 83z" />
    <glyph glyph-name="E_F" unicode="&#xe016;" horiz-adv-x="1843" 
d="M1709 715c35 0 64 -29 64 -64s-29 -63 -64 -63h-1512v-167h560c35 0 64 -28 64 -63s-29 -64 -64 -64h-560v-166h560c35 0 64 -28 64 -63c0 -36 -29 -64 -64 -64h-624c-35 0 -63 28 -63 64v586c0 35 28 64 63 64h1576zM1709 421c35 0 64 -28 64 -63s-29 -64 -64 -64h-560
v-229c0 -36 -28 -64 -63 -64c-36 0 -64 28 -64 64v293c0 35 28 63 64 63h623z" />
    <glyph glyph-name="E_R" unicode="&#xe017;" horiz-adv-x="1900" 
d="M758 294h-561v-166h561c35 0 63 -28 63 -63c0 -36 -28 -64 -63 -64h-624c-35 0 -64 28 -64 64v293c0 35 29 63 64 63h624c35 0 63 -28 63 -63s-28 -64 -63 -64zM1767 128c35 0 63 -28 63 -63c0 -36 -28 -64 -63 -64h-102c-18 0 -35 7 -47 20l-194 210h-274v-166
c0 -36 -29 -64 -64 -64s-63 28 -63 64v230c0 35 28 64 63 64h446c63 0 114 51 114 114s-51 115 -114 115h-1398c-35 0 -64 28 -64 63s29 64 64 64h1398c65 0 125 -26 171 -71c45 -46 71 -106 71 -171s-26 -125 -71 -171c-32 -31 -70 -53 -112 -63l102 -111h74z" />
    <glyph glyph-name="E_S" unicode="&#xe018;" horiz-adv-x="1843" 
d="M133 588c-35 0 -63 28 -63 63s28 64 63 64h624c35 0 64 -29 64 -64s-29 -63 -64 -63h-624zM1563 421c116 0 210 -94 210 -210s-94 -210 -210 -210h-1430c-35 0 -63 28 -63 64v293c0 35 28 63 63 63h624c35 0 64 -28 64 -63s-29 -64 -64 -64h-560v-166h1366
c46 0 83 37 83 83s-37 83 -83 83h-331c-116 0 -210 95 -210 210c0 116 94 211 210 211h435c35 0 64 -29 64 -64s-29 -63 -64 -63h-435c-46 0 -83 -38 -83 -84c0 -45 37 -83 83 -83h331z" />
    <glyph glyph-name="E_T" unicode="&#xe019;" horiz-adv-x="1583" 
d="M1489 715c35 0 64 -29 64 -64s-29 -63 -64 -63h-248v-523c0 -36 -28 -64 -64 -64c-35 0 -63 28 -63 64v523h-980c-35 0 -64 28 -64 63s29 64 64 64h1355zM758 294h-560v-166h560c35 0 63 -28 63 -63c0 -36 -28 -64 -63 -64h-624c-35 0 -64 28 -64 64v293
c0 35 29 63 64 63h624c35 0 63 -28 63 -63s-28 -64 -63 -64z" />
    <glyph glyph-name="L_E" unicode="&#xe020;" horiz-adv-x="1541" 
d="M1407 715c35 0 64 -29 64 -64s-29 -63 -64 -63h-787c-35 0 -64 28 -64 63s29 64 64 64h787zM1407 128c35 0 64 -28 64 -63c0 -36 -29 -64 -64 -64h-1274c-35 0 -63 28 -63 64v586c0 35 28 64 63 64c36 0 64 -29 64 -64v-523h1210zM1407 421c35 0 64 -28 64 -63
s-29 -64 -64 -64h-787c-35 0 -64 29 -64 64s29 63 64 63h787z" />
    <glyph glyph-name="E_P" unicode="&#xe021;" horiz-adv-x="1844" 
d="M1532 715c64 0 125 -26 171 -71c45 -46 71 -106 71 -171s-26 -125 -71 -171c-46 -45 -107 -71 -171 -71h-382v-166c0 -36 -29 -64 -64 -64s-63 28 -63 64v230c0 35 28 64 63 64h446c63 0 114 51 114 114s-51 115 -114 115h-1398c-35 0 -64 28 -64 63s29 64 64 64h1398z
M758 294h-561v-166h561c35 0 63 -28 63 -63c0 -36 -28 -64 -63 -64h-624c-35 0 -64 28 -64 64v293c0 35 29 63 64 63h624c35 0 63 -28 63 -63s-28 -64 -63 -64z" />
    <glyph glyph-name="E_Z" unicode="&#xe022;" horiz-adv-x="1830" 
d="M1675 128c36 0 64 -28 64 -63c0 -36 -28 -64 -64 -64h-478c-104 0 -188 84 -188 187c0 43 15 84 41 117c27 33 64 57 105 66l431 98c28 6 47 30 47 58c0 34 -27 61 -60 61h-1440c-35 0 -63 28 -63 63s28 64 63 64h1440c103 0 187 -84 187 -188c0 -42 -14 -83 -41 -117
c-26 -33 -63 -56 -105 -65l-431 -98c-27 -6 -47 -30 -47 -59c0 -33 27 -60 61 -60h478zM757 294h-560v-166h560c35 0 64 -28 64 -63c0 -36 -29 -64 -64 -64h-624c-35 0 -63 28 -63 64v293c0 35 28 63 63 63h624c35 0 64 -28 64 -63s-29 -64 -64 -64z" />
    <glyph glyph-name="F_B" unicode="&#xe023;" horiz-adv-x="1843" 
d="M1773 505c0 -57 -23 -109 -59 -147c36 -37 59 -89 59 -146v-1c0 -116 -94 -210 -210 -210h-477c-5 0 -9 0 -13 1c-22 5 -39 20 -47 41c-2 7 -4 14 -4 22v293c0 8 2 15 4 22c8 21 25 36 47 41c4 1 8 1 13 1h477c46 0 83 37 83 83c0 45 -37 83 -83 83h-1430
c-35 0 -63 28 -63 63s28 64 63 64h1430c116 0 210 -95 210 -210zM1646 211v1c0 46 -37 83 -83 83h-414v-167h414c46 0 83 37 83 83zM757 421c35 0 64 -28 64 -63s-29 -64 -64 -64h-560v-229c0 -36 -29 -64 -64 -64s-63 28 -63 64v293c0 7 1 15 4 22c7 20 25 36 47 40
c4 1 8 1 12 1h624z" />
    <glyph glyph-name="S_B" unicode="&#xe024;" horiz-adv-x="1822" 
d="M1543 715c115 0 209 -95 209 -210c0 -57 -22 -109 -59 -147c37 -37 59 -89 59 -146v-1c0 -116 -94 -210 -209 -210h-478c-35 0 -63 28 -63 64v293c0 36 28 64 63 64h478c45 0 82 37 82 83c0 45 -37 83 -82 83h-1262c-46 0 -84 -38 -84 -84c0 -45 38 -83 84 -83h330
c116 0 210 -94 210 -210s-94 -210 -210 -210h-435c-35 0 -63 28 -63 64c0 35 28 63 63 63h435c46 0 83 37 83 83s-37 83 -83 83h-330c-116 0 -211 95 -211 210c0 116 95 211 211 211h1262zM1625 211v1c0 46 -37 83 -82 83h-414v-167h414c45 0 82 37 82 83z" />
    <glyph glyph-name="T_B" unicode="&#xe025;" horiz-adv-x="1523" 
d="M1243 715c116 0 210 -95 210 -210c0 -57 -23 -109 -60 -147c37 -37 60 -89 60 -146v-1c0 -116 -94 -210 -210 -210h-478c-35 0 -63 28 -63 64v293c0 36 28 64 63 64h478c45 0 83 37 83 83c0 45 -38 83 -83 83h-774v-523c0 -36 -29 -64 -64 -64s-64 28 -64 64v523h-248
c-35 0 -63 28 -63 63s28 64 63 64h1150zM1326 211v1c0 46 -38 83 -83 83h-414v-167h414c45 0 83 37 83 83z" />
    <glyph glyph-name="L_B" unicode="&#xe026;" horiz-adv-x="1345" 
d="M1065 715c116 0 210 -95 210 -210c0 -57 -23 -109 -60 -147c37 -37 60 -89 60 -146v-1c0 -116 -94 -210 -210 -210h-932c-35 0 -63 28 -63 64v586c0 35 28 64 63 64s64 -29 64 -64v-523h868c46 0 83 37 83 83v1c0 46 -37 83 -83 83h-232c-35 0 -63 28 -63 63
c0 36 28 64 63 64h232c46 0 83 37 83 83c0 45 -37 83 -83 83h-414v-280c0 -35 -28 -64 -63 -64c-36 0 -64 29 -64 64v343c0 35 28 64 64 64h477z" />
    <glyph glyph-name="F_E" unicode="&#xe027;" horiz-adv-x="1804" 
d="M1671 715c35 0 63 -29 63 -64s-28 -63 -63 -63h-1537c-35 0 -64 28 -64 63s29 64 64 64h1537zM1671 294h-561v-166h561c35 0 63 -28 63 -63c0 -36 -28 -64 -63 -64h-624c-35 0 -64 28 -64 64v293c0 35 29 63 64 63h624c35 0 63 -28 63 -63s-28 -64 -63 -64zM758 421
c35 0 63 -28 63 -63s-28 -64 -63 -64h-560v-229c0 -36 -29 -64 -64 -64s-64 28 -64 64v293c0 35 29 63 64 63h624z" />
    <glyph glyph-name="F_T" unicode="&#xe028;" horiz-adv-x="1582" 
d="M1489 715c35 0 63 -29 63 -64s-28 -63 -63 -63h-249v-523c0 -36 -28 -64 -63 -64s-64 28 -64 64v523h-980c-35 0 -63 28 -63 63s28 64 63 64h1356zM757 421c35 0 64 -28 64 -63s-29 -64 -64 -64h-560v-229c0 -36 -28 -64 -64 -64c-35 0 -63 28 -63 64v293
c0 35 28 63 63 63h624z" />
    <glyph glyph-name="F_F" unicode="&#xe029;" horiz-adv-x="1844" 
d="M1710 715c35 0 64 -29 64 -64s-29 -63 -64 -63h-1576c-35 0 -64 28 -64 63s29 64 64 64h1576zM758 421c35 0 63 -28 63 -63s-28 -64 -63 -64h-560v-229c0 -36 -29 -64 -64 -64s-64 28 -64 64v293c0 35 29 63 64 63h624zM1710 421c35 0 64 -28 64 -63s-29 -64 -64 -64
h-560v-229c0 -36 -28 -64 -64 -64c-35 0 -63 28 -63 64v293c0 35 28 63 63 63h624z" />
    <glyph glyph-name="F_R" unicode="&#xe030;" horiz-adv-x="1699" 
d="M1566 128c35 0 63 -28 63 -63c0 -36 -28 -64 -63 -64h-103c-17 0 -34 7 -46 20l-194 210h-275v-166c0 -36 -28 -64 -63 -64s-64 28 -64 64v230c0 35 29 64 64 64h446c63 0 114 51 114 114s-51 115 -114 115h-1198c-35 0 -63 28 -63 63s28 64 63 64h1198
c64 0 125 -26 170 -71c46 -46 71 -106 71 -171s-25 -125 -71 -171c-31 -31 -70 -53 -112 -63l102 -111h75zM600 421c35 0 64 -28 64 -63s-29 -64 -64 -64h-403v-229c0 -36 -28 -64 -64 -64c-35 0 -63 28 -63 64v293c0 35 28 63 63 63h467z" />
    <glyph glyph-name="F_P" unicode="&#xe031;" horiz-adv-x="1642" 
d="M1330 715c65 0 125 -26 171 -71c46 -46 71 -106 71 -171s-25 -125 -71 -171c-46 -45 -106 -71 -171 -71h-382v-166c0 -36 -28 -64 -64 -64c-35 0 -63 28 -63 64v230c0 35 28 64 63 64h446c63 0 115 51 115 114s-52 115 -115 115h-730v0v0h-467c-35 0 -63 28 -63 63
s28 64 63 64h467v0v0h730zM600 421c35 0 63 -28 63 -63s-28 -64 -63 -64h-403v-229c0 -36 -29 -64 -64 -64s-63 28 -63 64v293c0 35 28 63 63 63h467z" />
    <glyph glyph-name="F_Z" unicode="&#xe032;" horiz-adv-x="1724" 
d="M1570 128c35 0 63 -28 63 -63c0 -36 -28 -64 -63 -64h-479c-104 0 -188 84 -188 187c0 43 15 84 41 117c27 33 64 57 105 66l431 98c28 6 47 30 47 58c0 34 -27 61 -60 61h-1333c-36 0 -64 28 -64 63s28 64 64 64h1333c103 0 187 -84 187 -188c0 -42 -14 -83 -41 -117
c-26 -33 -63 -56 -105 -65l-431 -98c-27 -6 -46 -30 -46 -59c0 -33 26 -60 60 -60h479zM651 421c36 0 64 -28 64 -63s-28 -64 -64 -64h-454v-229c0 -36 -28 -64 -63 -64c-36 0 -64 28 -64 64v293c0 35 28 63 64 63h517z" />
    <glyph glyph-name="R_D" unicode="&#xe033;" horiz-adv-x="1846" 
d="M1671 610c33 -33 58 -71 76 -113c19 -44 29 -91 29 -139s-10 -95 -29 -139c-18 -43 -43 -81 -76 -114c-33 -32 -71 -58 -113 -76c-44 -19 -91 -28 -139 -28h-706c-18 0 -35 7 -47 20l-193 210h-275v-166c0 -36 -28 -64 -63 -64c-36 0 -64 28 -64 64v230
c-1 34 29 64 64 64h445c63 0 115 51 115 114s-52 115 -115 115h-445c-36 0 -64 28 -64 63s28 64 64 64h445c65 0 126 -26 171 -71c46 -46 71 -106 71 -171s-25 -125 -71 -171c-31 -31 -70 -53 -112 -63l102 -111h678c126 0 229 103 229 230c0 126 -103 230 -229 230h-267
v-280c0 -35 -29 -64 -64 -64s-63 29 -63 64v343c0 35 28 64 63 64h331c48 0 95 -10 139 -28c42 -18 80 -44 113 -77z" />
    <glyph glyph-name="T_D" unicode="&#xe034;" horiz-adv-x="1544" 
d="M1369 610c33 -33 59 -71 77 -113c18 -44 28 -91 28 -139s-10 -95 -28 -139c-18 -43 -44 -81 -77 -114c-32 -32 -71 -58 -113 -76c-44 -19 -91 -28 -139 -28h-331c-35 0 -63 28 -63 64v343c0 35 28 63 63 63c36 0 64 -28 64 -63v-280h267c127 0 230 103 230 230
c0 126 -103 230 -230 230h-648v-523c0 -36 -28 -64 -63 -64s-64 28 -64 64v523h-248c-35 0 -64 28 -64 63s29 64 64 64h1023c48 0 95 -10 139 -28c42 -18 81 -44 113 -77z" />
    <glyph glyph-name="S_D" unicode="&#xe035;" horiz-adv-x="1819" 
d="M1645 610c32 -33 58 -71 76 -113c19 -44 28 -91 28 -139s-9 -95 -28 -139c-18 -43 -44 -81 -76 -114c-33 -32 -71 -58 -114 -76c-44 -19 -91 -28 -139 -28h-330c-35 0 -64 28 -64 64v343c0 35 29 63 64 63s63 -28 63 -63v-280h267c127 0 230 103 230 230
c0 126 -103 230 -230 230h-1111c-46 0 -83 -38 -83 -84c0 -45 37 -83 83 -83h330c116 0 210 -94 210 -210s-94 -210 -210 -210h-435c-35 0 -63 28 -63 64c0 35 28 63 63 63h435c46 0 83 37 83 83s-37 83 -83 83h-330c-116 0 -211 95 -211 210c0 116 95 211 211 211h1111
c48 0 95 -10 139 -28c43 -18 81 -44 114 -77z" />
    <glyph glyph-name="L_D" unicode="&#xe036;" horiz-adv-x="1383" 
d="M1208 610c33 -33 59 -71 77 -113c19 -44 28 -91 28 -139s-9 -95 -28 -139c-18 -43 -44 -81 -77 -114c-32 -32 -70 -58 -113 -76c-44 -19 -91 -28 -139 -28h-822c-35 0 -64 28 -64 64v586c0 35 29 64 64 64s63 -29 63 -64v-523h759c127 0 230 103 230 230
c0 126 -103 230 -230 230h-267v-280c0 -35 -28 -64 -63 -64c-36 0 -64 29 -64 64v343c0 35 28 64 64 64h330c48 0 95 -10 139 -28c43 -18 81 -44 113 -77z" />
    <glyph glyph-name="L_S" unicode="&#xe037;" horiz-adv-x="1274" 
d="M994 421c116 0 210 -94 210 -210s-94 -210 -210 -210h-860c-35 0 -64 28 -64 64v586c0 35 29 64 64 64s63 -29 63 -64v-523h797c46 0 83 37 83 83s-37 83 -83 83h-331c-116 0 -210 95 -210 210c0 116 94 211 210 211h435c35 0 64 -29 64 -64s-29 -63 -64 -63h-435
c-46 0 -83 -38 -83 -84c0 -45 37 -83 83 -83h331z" />
    <glyph glyph-name="T_P" unicode="&#xe038;" horiz-adv-x="1596" 
d="M1284 714c65 0 125 -25 171 -70c46 -46 71 -107 71 -171c0 -65 -25 -125 -71 -171s-106 -71 -171 -71h-382v-167c0 -35 -28 -63 -64 -63c-35 0 -63 28 -63 63v231c-1 34 29 64 63 63h446c63 0 115 52 115 115s-52 114 -115 114h-815v-523c0 -35 -29 -63 -64 -63
s-63 28 -63 63v523h-249c-35 0 -63 29 -63 64s28 63 63 63h312v0v0h879z" />
    <glyph glyph-name="T_R" unicode="&#xe039;" horiz-adv-x="1653" 
d="M1519 128c35 0 64 -28 64 -64c0 -35 -29 -63 -64 -63h-102c-18 0 -35 7 -47 20l-194 210h-274v-167c0 -35 -29 -63 -64 -63s-63 28 -63 63v231c0 35 28 63 63 63h446c63 0 115 52 115 115s-52 114 -115 114h-815v-523c0 -35 -29 -63 -64 -63s-64 28 -64 63v523h-248
c-35 0 -63 29 -63 64s28 63 63 63h1191c65 0 125 -25 171 -70c46 -46 71 -107 71 -171c0 -65 -25 -125 -71 -171c-32 -31 -70 -53 -112 -64l102 -110h74z" />
    <glyph glyph-name="C_A" unicode="&#xe040;" horiz-adv-x="1633" 
d="M1325 714c64 0 124 -24 169 -69s69 -105 69 -169v-412c0 -35 -28 -63 -63 -63s-64 28 -64 63v230h-413c-46 0 -83 -37 -83 -83s37 -83 83 -83h215c35 0 64 -28 64 -64c0 -35 -29 -63 -64 -63h-215c-116 0 -211 94 -211 210s95 210 211 210h413v55c0 61 -50 111 -111 111
h-898c-126 0 -229 -103 -229 -229c0 -127 103 -230 229 -230h170c35 0 63 -28 63 -64c0 -35 -28 -63 -63 -63h-170c-48 0 -95 9 -139 28c-42 18 -80 44 -113 76c-33 33 -59 71 -76 114c-19 44 -29 91 -29 139s10 95 29 139c17 42 43 80 76 113s71 58 113 76
c44 19 91 28 139 28h898z" />
    <glyph glyph-name="E_A" unicode="&#xe041;" horiz-adv-x="1804" 
d="M1496 714c63 0 123 -24 168 -69s70 -105 70 -169v-412c0 -35 -28 -63 -63 -63c-36 0 -64 28 -64 63v230h-414c-45 0 -83 -37 -83 -83s38 -83 83 -83h216c35 0 63 -28 63 -64c0 -35 -28 -63 -63 -63h-216c-116 0 -210 94 -210 210s94 210 210 210h414v55
c0 61 -50 111 -111 111h-1363c-35 0 -63 29 -63 64s28 63 63 63h1363zM757 294h-560v-166h560c35 0 64 -28 64 -64c0 -35 -29 -63 -64 -63h-624c-35 0 -63 28 -63 63v294c0 35 28 63 63 63h624c35 0 64 -28 64 -63s-29 -64 -64 -64z" />
    <glyph glyph-name="S_A" unicode="&#xe042;" horiz-adv-x="1780" 
d="M1471 714c64 0 124 -24 169 -69s70 -105 70 -169v-412c0 -35 -29 -63 -64 -63s-63 28 -63 63v230h-414c-46 0 -83 -37 -83 -83s37 -83 83 -83h215c35 0 64 -28 64 -64c0 -35 -29 -63 -64 -63h-215c-116 0 -210 94 -210 210s94 210 210 210h414v55c0 61 -50 111 -112 111
h-1191c-45 0 -83 -37 -83 -83c0 -45 38 -83 83 -83h331c116 0 210 -94 210 -210s-94 -210 -210 -210h-435c-35 0 -63 28 -63 63c0 36 28 64 63 64h435c46 0 83 37 83 83s-37 83 -83 83h-331c-115 0 -210 94 -210 210s95 210 210 210h1191z" />
    <glyph glyph-name="T_A" unicode="&#xe043;" horiz-adv-x="1506" 
d="M1198 714c64 0 123 -24 169 -69c45 -45 69 -105 69 -169v-412c0 -35 -28 -63 -63 -63s-64 28 -64 63v230h-413c-46 0 -83 -37 -83 -83s37 -83 83 -83h215c35 0 63 -28 63 -64c0 -35 -28 -63 -63 -63h-215c-116 0 -211 94 -211 210s95 210 211 210h413v55
c0 61 -50 111 -111 111h-729v-523c0 -35 -29 -63 -64 -63s-64 28 -64 63v523h-248c-35 0 -63 29 -63 64s28 63 63 63h1105z" />
    <glyph glyph-name="A_S" unicode="&#xe044;" horiz-adv-x="1828" 
d="M1548 421c116 0 210 -94 210 -210s-94 -210 -210 -210h-791c-35 0 -63 28 -63 63v230h-414c-46 0 -83 -37 -83 -83s37 -83 83 -83h215c35 0 64 -28 64 -64c0 -35 -29 -63 -64 -63h-215c-116 0 -210 94 -210 210s94 210 210 210h414v55c0 61 -50 111 -112 111h-396
c-35 0 -63 29 -63 64s28 63 63 63h396c64 0 124 -24 169 -69s70 -105 70 -169v-348h727c46 0 83 37 83 83s-37 83 -83 83h-331c-115 0 -210 94 -210 210s95 210 210 210h435c35 0 64 -28 64 -63s-29 -64 -64 -64h-435c-45 0 -83 -37 -83 -83c0 -45 38 -83 83 -83h331z" />
    <glyph glyph-name="A" unicode="A" horiz-adv-x="939" 
d="M680 579l223 -488c14 -32 0 -70 -32 -84c-8 -4 -17 -6 -26 -6c-24 0 -47 14 -58 37l-222 489c-17 37 -55 60 -95 60c-41 0 -78 -23 -95 -60l-223 -489c-14 -32 -52 -46 -84 -31c-32 14 -46 52 -31 84l222 488c38 82 120 136 211 136c90 0 173 -54 210 -136zM470 345
c63 0 114 -51 114 -114s-51 -114 -114 -114s-114 51 -114 114s51 114 114 114z" />
    <glyph glyph-name="B" unicode="B" 
d="M611 715c115 0 210 -95 210 -210c0 -57 -23 -109 -60 -147c37 -37 60 -89 60 -146v-1c0 -116 -95 -210 -210 -210h-478c-35 0 -63 28 -63 64c0 35 28 63 63 63h478c45 0 82 37 82 83v1c0 46 -37 83 -82 83h-478c-35 0 -63 28 -63 63c0 36 28 64 63 64h478
c45 0 82 37 82 83c0 45 -37 83 -82 83h-478c-35 0 -63 28 -63 63s28 64 63 64h478z" />
    <glyph glyph-name="C" unicode="C" horiz-adv-x="885" 
d="M459 588c-161 0 -262 -89 -262 -230c0 -142 101 -230 262 -230h50c83 0 151 23 197 67c26 24 66 24 90 -2c24 -25 24 -65 -2 -90c-70 -67 -168 -102 -285 -102h-50c-118 0 -217 36 -287 104c-33 32 -59 71 -76 115c-17 43 -26 89 -26 138c0 48 9 95 26 137
c17 44 43 83 76 116c70 68 169 104 287 104h50c118 0 217 -36 287 -104c25 -25 25 -65 1 -90s-65 -26 -90 -1c-46 44 -114 68 -198 68h-50z" />
    <glyph glyph-name="minus" unicode="&#x2212;" horiz-adv-x="608" 
d="M478 418c33 0 60 -27 60 -60s-27 -60 -60 -60h-348c-33 0 -60 27 -60 60s27 60 60 60h348z" />
    <glyph glyph-name="trademark" unicode="&#x2122;" horiz-adv-x="1206" 
d="M471 717c21 0 37 -17 37 -37c0 -21 -16 -37 -37 -37h-145v-305c0 -21 -16 -37 -37 -37c-20 0 -37 16 -37 37v305h-145c-20 0 -37 16 -37 37c0 20 17 37 37 37h364zM1114 714c13 -6 22 -19 22 -34v-342c0 -21 -17 -37 -37 -37s-37 16 -37 37v255l-185 -178
c-14 -14 -38 -14 -52 0l-185 178v-255c0 -21 -16 -37 -37 -37c-20 0 -37 16 -37 37v342c0 15 9 28 23 34s29 3 40 -7l222 -214l222 214c11 10 27 13 41 7z" />
    <glyph glyph-name="S_P" unicode="&#xe045;" horiz-adv-x="1762" 
d="M1621 644c46 -46 71 -106 71 -171s-25 -125 -71 -171c-45 -45 -106 -71 -171 -71h-382v-166c0 -36 -28 -64 -63 -64c-36 0 -64 28 -64 64v230c0 35 28 64 64 64h445c63 0 115 51 115 114s-52 115 -115 115h-730h-5h-110h-6h-319c-46 0 -83 -38 -83 -84
c0 -45 37 -83 83 -83h331c116 0 210 -94 210 -210s-94 -210 -210 -210h-435c-35 0 -64 28 -64 64c0 35 29 63 64 63h435c46 0 83 37 83 83s-37 83 -83 83h-331c-116 0 -210 95 -210 210c0 116 94 211 210 211h319h6h845c65 0 126 -26 171 -71z" />
    <glyph glyph-name="R_S" unicode="&#xe046;" horiz-adv-x="1769" 
d="M1489 421c116 0 210 -94 210 -210s-94 -210 -210 -210h-735h-5h-37c-18 0 -35 7 -47 20l-194 210h-274v-166c0 -36 -29 -64 -64 -64s-63 28 -63 64v230c0 35 28 64 63 64h446c63 0 115 51 115 114s-52 115 -115 115h-446c-35 0 -63 28 -63 63s28 64 63 64h446
c65 0 125 -26 171 -71c46 -46 71 -106 71 -171s-25 -125 -71 -171c-31 -31 -70 -53 -112 -63l102 -111h9h5h60h5h670c46 0 83 37 83 83s-37 83 -83 83h-331c-116 0 -210 95 -210 210c0 116 94 211 210 211h435c35 0 64 -29 64 -64s-29 -63 -64 -63h-435
c-46 0 -83 -38 -83 -84c0 -45 37 -83 83 -83h331z" />
    <glyph glyph-name="T_T" unicode="&#xe047;" horiz-adv-x="1422" 
d="M1329 715c35 0 63 -29 63 -64s-28 -63 -63 -63h-249v-523c0 -36 -28 -64 -63 -64s-64 28 -64 64v523h-230h-5h-13h-5h-231v-523c0 -36 -28 -64 -63 -64s-64 28 -64 64v523h-248c-35 0 -64 28 -64 63s29 64 64 64h606h5h13h5h606z" />
    <glyph glyph-name="dotlessi" unicode="&#x131;" horiz-adv-x="627" 
d="M493 588h-116v-460h116c36 0 64 -28 64 -63c0 -36 -28 -64 -64 -64h-359c-35 0 -64 28 -64 64c0 35 29 63 64 63h116v460h-116c-35 0 -64 28 -64 63s29 64 64 64h359c36 0 64 -29 64 -64s-28 -63 -64 -63z" />
    <glyph glyph-name="ellipsis" unicode="&#x2026;" horiz-adv-x="900" 
d="M150 161c44 0 80 -36 80 -80s-36 -80 -80 -80s-80 36 -80 80s36 80 80 80zM450 161c44 0 80 -36 80 -80s-36 -80 -80 -80s-80 36 -80 80s36 80 80 80zM750 161c44 0 80 -36 80 -80s-36 -80 -80 -80s-80 36 -80 80s36 80 80 80z" />
    <glyph glyph-name="Lslash" unicode="&#x141;" horiz-adv-x="806" 
d="M440 474c24 24 62 24 85 0c23 -23 23 -61 0 -84l-260 -261c-23 -23 -62 -23 -85 0c-23 24 -23 62 0 85zM672 128c35 0 64 -28 64 -63c0 -36 -29 -64 -64 -64h-539c-35 0 -63 28 -63 64v586c0 35 28 64 63 64s64 -29 64 -64v-523h475z" />
    <glyph glyph-name="lslash" unicode="&#x142;" horiz-adv-x="806" 
d="M440 474c24 24 62 24 85 0c23 -23 23 -61 0 -84l-260 -261c-23 -23 -62 -23 -85 0c-23 24 -23 62 0 85zM672 128c35 0 64 -28 64 -63c0 -36 -29 -64 -64 -64h-313c-77 0 -150 30 -205 85c-54 54 -84 127 -84 204v361c0 35 28 64 63 64s64 -29 64 -64v-361
c0 -89 73 -162 162 -162h313z" />
    <glyph glyph-name="Zcaron" unicode="&#x17d;" 
d="M737 128c35 0 63 -28 63 -63c0 -36 -28 -64 -63 -64h-479c-104 0 -188 84 -188 187c0 43 15 84 41 117c27 33 64 57 105 66l431 98c28 6 47 30 47 58c0 34 -27 61 -60 61h-479c-35 0 -63 28 -63 63s28 64 63 64h479c103 0 187 -84 187 -188c0 -42 -14 -83 -41 -117
c-26 -33 -63 -56 -105 -65l-431 -98c-27 -6 -47 -30 -47 -59c0 -33 27 -60 61 -60h479zM597 1006c28 18 65 10 83 -17c18 -28 10 -65 -17 -83l-185 -122c-20 -13 -46 -13 -66 0l-185 122c-27 18 -35 55 -17 83c18 27 56 35 83 17l152 -100z" />
    <glyph glyph-name="zcaron" unicode="&#x17e;" 
d="M737 128c35 0 63 -28 63 -63c0 -36 -28 -64 -63 -64h-479c-104 0 -188 84 -188 187c0 43 15 84 41 117c27 33 64 57 105 66l431 98c28 6 47 30 47 58c0 34 -27 61 -60 61h-479c-35 0 -63 28 -63 63s28 64 63 64h479c103 0 187 -84 187 -188c0 -42 -14 -83 -41 -117
c-26 -33 -63 -56 -105 -65l-431 -98c-27 -6 -47 -30 -47 -59c0 -33 27 -60 61 -60h479zM597 1006c28 18 65 10 83 -17c18 -28 10 -65 -17 -83l-185 -122c-20 -13 -46 -13 -66 0l-185 122c-27 18 -35 55 -17 83c18 27 56 35 83 17l152 -100z" />
    <glyph glyph-name="Scaron" unicode="&#x160;" 
d="M611 421c116 0 210 -94 210 -210s-94 -210 -210 -210h-435c-35 0 -64 28 -64 64c0 35 29 63 64 63h435c46 0 83 37 83 83s-37 83 -83 83h-331c-116 0 -210 95 -210 210c0 116 94 211 210 211h435c35 0 64 -29 64 -64s-29 -63 -64 -63h-435c-46 0 -83 -38 -83 -84
c0 -45 37 -83 83 -83h331zM597 1006c28 18 65 10 83 -17c18 -28 10 -65 -17 -83l-185 -122c-20 -13 -46 -13 -66 0l-185 122c-27 18 -35 55 -17 83c18 27 56 35 83 17l152 -100z" />
    <glyph glyph-name="Ydieresis" unicode="&#x178;" horiz-adv-x="812" 
d="M746 708c32 -16 44 -54 28 -86l-89 -177c-27 -51 -66 -94 -116 -125c-31 -19 -64 -32 -100 -39v-216c0 -36 -28 -64 -63 -64s-64 28 -64 64v216c-35 7 -69 20 -100 39c-49 31 -89 74 -115 125l-90 177c-16 32 -3 70 28 86s70 3 86 -28l89 -177c32 -63 96 -102 166 -102
s133 39 165 102l90 177c16 31 54 44 85 28zM305 935c45 0 80 -36 80 -80c0 -45 -35 -80 -80 -80c-44 0 -80 35 -80 80c0 44 36 80 80 80zM507 935c44 0 80 -36 80 -80c0 -45 -36 -80 -80 -80s-80 35 -80 80c0 44 36 80 80 80z" />
    <glyph glyph-name="exclamdown" unicode="&#xa1;" horiz-adv-x="309" 
d="M154 473c-46 0 -84 38 -84 84c0 47 38 85 84 85c47 0 85 -38 85 -85c0 -46 -38 -84 -85 -84zM91 -50l25 406c1 19 16 35 36 36c21 1 40 -15 41 -36l25 -406v-8c-2 -35 -32 -62 -67 -60c-36 2 -62 33 -60 68z" />
    <glyph glyph-name="scaron" unicode="&#x161;" 
d="M611 421c115 0 210 -94 210 -210s-95 -210 -210 -210h-435c-35 0 -64 28 -64 64c0 35 29 63 64 63h435c45 0 83 37 83 83s-38 83 -83 83h-331c-116 0 -210 95 -210 210c0 116 94 211 210 211h435c35 0 63 -29 63 -64s-28 -63 -63 -63h-435c-46 0 -83 -38 -83 -84
c0 -45 37 -83 83 -83h331zM597 1006c28 18 65 10 83 -17c18 -28 10 -65 -17 -83l-185 -122c-20 -13 -46 -13 -66 0l-185 122c-27 18 -35 55 -17 83c18 27 56 35 83 17l152 -100z" />
    <glyph glyph-name="questiondown" unicode="&#xbf;" horiz-adv-x="710" 
d="M279 -99c-115 0 -209 95 -209 210c0 116 94 210 209 210h234v23c0 35 28 63 63 63s64 -28 64 -63v-86c0 -36 -29 -64 -64 -64h-297c-45 0 -82 -37 -82 -83c0 -45 37 -82 82 -82h297c35 0 64 -29 64 -64s-29 -64 -64 -64h-297zM560 455c-44 0 -80 36 -80 80s36 80 80 80
s80 -36 80 -80s-36 -80 -80 -80z" />
    <glyph glyph-name="Aring" unicode="&#xc5;" horiz-adv-x="939" 
d="M680 579l223 -488c14 -32 0 -70 -32 -84c-8 -4 -17 -6 -26 -6c-24 0 -47 14 -58 37l-222 489c-17 37 -55 60 -95 60c-41 0 -78 -23 -95 -60l-223 -489c-14 -32 -52 -46 -84 -31c-32 14 -46 52 -31 84l222 488c38 82 120 136 211 136c90 0 173 -54 210 -136zM470 345
c63 0 114 -51 114 -114s-51 -114 -114 -114s-114 51 -114 114s51 114 114 114zM469 1169c109 0 197 -88 197 -197s-88 -197 -197 -197s-197 88 -197 197s88 197 197 197zM469 895c43 0 77 34 77 77c0 42 -34 77 -77 77s-77 -35 -77 -77c0 -43 34 -77 77 -77z" />
    <glyph glyph-name="Adieresis" unicode="&#xc4;" horiz-adv-x="939" 
d="M680 579l223 -488c14 -32 0 -70 -32 -84c-8 -4 -17 -6 -26 -6c-24 0 -47 14 -58 37l-222 489c-17 37 -55 60 -95 60c-41 0 -78 -23 -95 -60l-223 -489c-14 -32 -52 -46 -84 -31c-32 14 -46 52 -31 84l222 488c38 82 120 136 211 136c90 0 173 -54 210 -136zM470 345
c63 0 114 -51 114 -114s-51 -114 -114 -114s-114 51 -114 114s51 114 114 114zM368 935c45 0 80 -36 80 -80c0 -45 -35 -80 -80 -80c-44 0 -80 35 -80 80c0 44 36 80 80 80zM570 935c44 0 80 -36 80 -80c0 -45 -36 -80 -80 -80s-80 35 -80 80c0 44 36 80 80 80z" />
    <glyph glyph-name="Atilde" unicode="&#xc3;" horiz-adv-x="939" 
d="M680 579l223 -488c14 -32 0 -70 -32 -84c-8 -4 -17 -6 -26 -6c-24 0 -47 14 -58 37l-222 489c-17 37 -55 60 -95 60c-41 0 -78 -23 -95 -60l-223 -489c-14 -32 -52 -46 -84 -31c-32 14 -46 52 -31 84l222 488c38 82 120 136 211 136c90 0 173 -54 210 -136zM470 345
c63 0 114 -51 114 -114s-51 -114 -114 -114s-114 51 -114 114s51 114 114 114zM715 844c-33 -45 -81 -69 -135 -69c-62 0 -107 30 -144 54c-34 22 -56 36 -85 36c-15 0 -25 -5 -33 -16c-9 -12 -12 -26 -12 -26v1c-30 -87 -135 -49 -118 21c1 6 7 37 28 68
c31 46 79 72 135 72c66 0 114 -31 152 -56c32 -21 52 -34 77 -34c10 0 24 2 37 18c10 13 14 28 14 28v-1c25 73 137 56 116 -30c-1 -6 -10 -35 -32 -66z" />
    <glyph glyph-name="Acircumflex" unicode="&#xc2;" horiz-adv-x="939" 
d="M680 579l223 -488c14 -32 0 -70 -32 -84c-8 -4 -17 -6 -26 -6c-24 0 -47 14 -58 37l-222 489c-17 37 -55 60 -95 60c-41 0 -78 -23 -95 -60l-223 -489c-14 -32 -52 -46 -84 -31c-32 14 -46 52 -31 84l222 488c38 82 120 136 211 136c90 0 173 -54 210 -136zM470 345
c63 0 114 -51 114 -114s-51 -114 -114 -114s-114 51 -114 114s51 114 114 114zM686 885c28 -18 36 -56 18 -83c-12 -18 -31 -27 -50 -27c-12 0 -23 3 -33 9l-152 100l-152 -100c-10 -6 -22 -9 -33 -9c-19 0 -39 9 -50 27c-18 27 -11 65 17 83l184 120c20 14 48 14 68 0z" />
    <glyph glyph-name="Aacute" unicode="&#xc1;" horiz-adv-x="939" 
d="M680 579l223 -488c14 -32 0 -70 -32 -84c-8 -4 -17 -6 -26 -6c-24 0 -47 14 -58 37l-222 489c-17 37 -55 60 -95 60c-41 0 -78 -23 -95 -60l-223 -489c-14 -32 -52 -46 -84 -31c-32 14 -46 52 -31 84l222 488c38 82 120 136 211 136c90 0 173 -54 210 -136zM470 345
c63 0 114 -51 114 -114s-51 -114 -114 -114s-114 51 -114 114s51 114 114 114zM480 984c23 23 61 23 85 0c23 -24 23 -62 0 -85l-107 -107c-12 -11 -27 -17 -42 -17c-16 0 -31 5 -43 17c-23 24 -23 62 0 85z" />
    <glyph glyph-name="Agrave" unicode="&#xc0;" horiz-adv-x="939" 
d="M680 579l223 -488c14 -32 0 -70 -32 -84c-8 -4 -17 -6 -26 -6c-24 0 -47 14 -58 37l-222 489c-17 37 -55 60 -95 60c-41 0 -78 -23 -95 -60l-223 -489c-14 -32 -52 -46 -84 -31c-32 14 -46 52 -31 84l222 488c38 82 120 136 211 136c90 0 173 -54 210 -136zM470 345
c63 0 114 -51 114 -114s-51 -114 -114 -114s-114 51 -114 114s51 114 114 114zM458 994l113 -113c25 -25 25 -65 0 -90c-13 -12 -29 -18 -45 -18s-33 6 -45 18l-113 113c-25 25 -25 66 0 90c25 25 65 25 90 0z" />
    <glyph glyph-name="Idieresis" unicode="&#xcf;" horiz-adv-x="267" 
d="M133 715c35 0 64 -29 64 -64v-586c0 -36 -29 -64 -64 -64s-63 28 -63 64v586c0 35 28 64 63 64zM33 935c45 0 80 -36 80 -80c0 -45 -35 -80 -80 -80c-44 0 -80 35 -80 80c0 44 36 80 80 80zM235 935c44 0 80 -36 80 -80c0 -45 -36 -80 -80 -80s-80 35 -80 80
c0 44 36 80 80 80z" />
    <glyph glyph-name="Icircumflex" unicode="&#xce;" horiz-adv-x="267" 
d="M133 715c35 0 64 -29 64 -64v-586c0 -36 -29 -64 -64 -64s-63 28 -63 64v586c0 35 28 64 63 64zM351 885c28 -18 36 -56 18 -83c-12 -18 -31 -27 -50 -27c-12 0 -23 3 -33 9l-152 100l-152 -100c-10 -6 -22 -9 -33 -9c-19 0 -39 9 -50 27c-18 27 -11 65 17 83l184 120
c20 14 48 14 68 0z" />
    <glyph glyph-name="Iacute" unicode="&#xcd;" horiz-adv-x="267" 
d="M133 715c35 0 64 -29 64 -64v-586c0 -36 -29 -64 -64 -64s-63 28 -63 64v586c0 35 28 64 63 64zM145 984c23 23 61 23 85 0c23 -24 23 -62 0 -85l-107 -107c-12 -11 -27 -17 -42 -17c-16 0 -31 5 -43 17c-23 24 -23 62 0 85z" />
    <glyph glyph-name="Igrave" unicode="&#xcc;" horiz-adv-x="267" 
d="M133 715c35 0 64 -29 64 -64v-586c0 -36 -29 -64 -64 -64s-63 28 -63 64v586c0 35 28 64 63 64zM122 994l113 -113c25 -25 25 -65 0 -90c-13 -12 -29 -18 -45 -18s-33 6 -45 18l-113 113c-25 25 -25 66 0 90c25 25 65 25 90 0z" />
    <glyph glyph-name="Edieresis" unicode="&#xcb;" 
d="M757 715c35 0 64 -29 64 -64s-29 -63 -64 -63h-624c-35 0 -63 28 -63 63s28 64 63 64h624zM757 128c35 0 64 -28 64 -63c0 -36 -29 -64 -64 -64h-624c-35 0 -63 28 -63 64c0 35 28 63 63 63h624zM757 421c35 0 64 -28 64 -63s-29 -64 -64 -64h-624c-35 0 -63 29 -63 64
s28 63 63 63h624zM344 935c45 0 80 -36 80 -80c0 -45 -35 -80 -80 -80c-44 0 -80 35 -80 80c0 44 36 80 80 80zM546 935c44 0 80 -36 80 -80c0 -45 -36 -80 -80 -80s-80 35 -80 80c0 44 36 80 80 80z" />
    <glyph glyph-name="Ecircumflex" unicode="&#xca;" 
d="M757 715c35 0 64 -29 64 -64s-29 -63 -64 -63h-624c-35 0 -63 28 -63 63s28 64 63 64h624zM757 128c35 0 64 -28 64 -63c0 -36 -29 -64 -64 -64h-624c-35 0 -63 28 -63 64c0 35 28 63 63 63h624zM757 421c35 0 64 -28 64 -63s-29 -64 -64 -64h-624c-35 0 -63 29 -63 64
s28 63 63 63h624zM662 885c28 -18 36 -56 18 -83c-12 -18 -31 -27 -50 -27c-12 0 -23 3 -33 9l-152 100l-152 -100c-10 -6 -22 -9 -33 -9c-19 0 -39 9 -50 27c-18 27 -11 65 17 83l184 120c20 14 48 14 68 0z" />
    <glyph glyph-name="Eacute" unicode="&#xc9;" 
d="M757 715c35 0 64 -29 64 -64s-29 -63 -64 -63h-624c-35 0 -63 28 -63 63s28 64 63 64h624zM757 128c35 0 64 -28 64 -63c0 -36 -29 -64 -64 -64h-624c-35 0 -63 28 -63 64c0 35 28 63 63 63h624zM757 421c35 0 64 -28 64 -63s-29 -64 -64 -64h-624c-35 0 -63 29 -63 64
s28 63 63 63h624zM456 984c23 23 61 23 85 0c23 -24 23 -62 0 -85l-107 -107c-12 -11 -27 -17 -42 -17c-16 0 -31 5 -43 17c-23 24 -23 62 0 85z" />
    <glyph glyph-name="Egrave" unicode="&#xc8;" 
d="M757 715c35 0 64 -29 64 -64s-29 -63 -64 -63h-624c-35 0 -63 28 -63 63s28 64 63 64h624zM757 128c35 0 64 -28 64 -63c0 -36 -29 -64 -64 -64h-624c-35 0 -63 28 -63 64c0 35 28 63 63 63h624zM757 421c35 0 64 -28 64 -63s-29 -64 -64 -64h-624c-35 0 -63 29 -63 64
s28 63 63 63h624zM434 994l113 -113c25 -25 25 -65 0 -90c-13 -12 -29 -18 -45 -18s-33 6 -45 18l-113 113c-25 25 -25 66 0 90c25 25 65 25 90 0z" />
    <glyph glyph-name="Ccedilla" unicode="&#xc7;" horiz-adv-x="885" 
d="M459 588c-161 0 -262 -89 -262 -230c0 -142 101 -230 262 -230h50c83 0 151 23 197 67c26 24 66 24 90 -2c24 -25 24 -65 -2 -90c-70 -67 -168 -102 -285 -102h-50c-118 0 -217 36 -287 104c-33 32 -59 71 -76 115c-17 43 -26 89 -26 138c0 48 9 95 26 137
c17 44 43 83 76 116c70 68 169 104 287 104h50c118 0 217 -36 287 -104c25 -25 25 -65 1 -90s-65 -26 -90 -1c-46 44 -114 68 -198 68h-50zM456 118c49 -17 94 -52 126 -99c34 -48 48 -102 42 -150c-6 -40 -25 -73 -57 -97c-31 -24 -72 -37 -123 -40h-3c-32 0 -58 24 -60 56
c-2 33 24 62 57 63c25 2 45 7 56 16c7 5 10 10 11 18c2 18 -6 43 -22 66c-17 25 -42 45 -66 53c-31 11 -48 45 -37 76c11 32 45 48 76 38z" />
    <glyph glyph-name="Eth" unicode="&#xd0;" 
d="M716 610c33 -33 59 -71 77 -113c18 -44 28 -91 28 -139s-10 -95 -28 -139c-18 -43 -44 -81 -77 -114c-32 -32 -71 -58 -113 -76c-44 -19 -91 -28 -139 -28h-331c-35 0 -63 28 -63 64c0 35 28 63 63 63h331c127 0 230 103 230 230c0 126 -103 230 -230 230h-267v-230
c0 -35 -28 -64 -64 -64c-35 0 -63 29 -63 64v293c0 35 28 64 63 64h331c48 0 95 -10 139 -28c42 -18 81 -44 113 -77zM352 411c33 0 60 -27 60 -60s-27 -60 -60 -60h-348c-33 0 -60 27 -60 60s27 60 60 60h348z" />
    <glyph glyph-name="Odieresis" unicode="&#xd6;" horiz-adv-x="968" 
d="M796 611c33 -33 59 -72 76 -116c17 -42 26 -89 26 -137c0 -49 -9 -95 -26 -138c-17 -44 -43 -83 -76 -115c-70 -68 -169 -104 -287 -104h-50c-118 0 -217 36 -287 104c-33 32 -59 71 -77 115c-16 43 -25 89 -25 138c0 48 9 95 25 137c18 44 44 83 77 116
c70 68 169 104 287 104h50c118 0 217 -36 287 -104zM509 128c161 0 262 88 262 230c0 141 -101 230 -262 230h-50c-162 0 -262 -89 -262 -230c0 -142 100 -230 262 -230h50zM383 935c45 0 80 -36 80 -80c0 -45 -35 -80 -80 -80c-44 0 -80 35 -80 80c0 44 36 80 80 80z
M585 935c44 0 80 -36 80 -80c0 -45 -36 -80 -80 -80s-80 35 -80 80c0 44 36 80 80 80z" />
    <glyph glyph-name="Otilde" unicode="&#xd5;" horiz-adv-x="968" 
d="M796 611c33 -33 59 -72 76 -116c17 -42 26 -89 26 -137c0 -49 -9 -95 -26 -138c-17 -44 -43 -83 -76 -115c-70 -68 -169 -104 -287 -104h-50c-118 0 -217 36 -287 104c-33 32 -59 71 -77 115c-16 43 -25 89 -25 138c0 48 9 95 25 137c18 44 44 83 77 116
c70 68 169 104 287 104h50c118 0 217 -36 287 -104zM509 128c161 0 262 88 262 230c0 141 -101 230 -262 230h-50c-162 0 -262 -89 -262 -230c0 -142 100 -230 262 -230h50zM729 844c-33 -45 -81 -69 -135 -69c-62 0 -107 30 -144 54c-34 22 -56 36 -85 36
c-15 0 -25 -5 -33 -16c-9 -12 -12 -26 -12 -26v1c-30 -87 -135 -49 -118 21c1 6 7 37 28 68c31 46 79 72 135 72c66 0 114 -31 152 -56c32 -21 52 -34 77 -34c10 0 24 2 37 18c10 13 14 28 14 28v-1c25 73 137 56 116 -30c-1 -6 -10 -35 -32 -66z" />
    <glyph glyph-name="Ocircumflex" unicode="&#xd4;" horiz-adv-x="968" 
d="M796 611c33 -33 59 -72 76 -116c17 -42 26 -89 26 -137c0 -49 -9 -95 -26 -138c-17 -44 -43 -83 -76 -115c-70 -68 -169 -104 -287 -104h-50c-118 0 -217 36 -287 104c-33 32 -59 71 -77 115c-16 43 -25 89 -25 138c0 48 9 95 25 137c18 44 44 83 77 116
c70 68 169 104 287 104h50c118 0 217 -36 287 -104zM509 128c161 0 262 88 262 230c0 141 -101 230 -262 230h-50c-162 0 -262 -89 -262 -230c0 -142 100 -230 262 -230h50zM701 885c28 -18 36 -56 18 -83c-12 -18 -31 -27 -50 -27c-12 0 -23 3 -33 9l-152 100l-152 -100
c-10 -6 -22 -9 -33 -9c-19 0 -39 9 -50 27c-18 27 -11 65 17 83l184 120c20 14 48 14 68 0z" />
    <glyph glyph-name="Oacute" unicode="&#xd3;" horiz-adv-x="968" 
d="M796 611c33 -33 59 -72 76 -116c17 -42 26 -89 26 -137c0 -49 -9 -95 -26 -138c-17 -44 -43 -83 -76 -115c-70 -68 -169 -104 -287 -104h-50c-118 0 -217 36 -287 104c-33 32 -59 71 -77 115c-16 43 -25 89 -25 138c0 48 9 95 25 137c18 44 44 83 77 116
c70 68 169 104 287 104h50c118 0 217 -36 287 -104zM509 128c161 0 262 88 262 230c0 141 -101 230 -262 230h-50c-162 0 -262 -89 -262 -230c0 -142 100 -230 262 -230h50zM495 984c23 23 61 23 85 0c23 -24 23 -62 0 -85l-107 -107c-12 -11 -27 -17 -42 -17
c-16 0 -31 5 -43 17c-23 24 -23 62 0 85z" />
    <glyph glyph-name="Ograve" unicode="&#xd2;" horiz-adv-x="968" 
d="M796 611c33 -33 59 -72 76 -116c17 -42 26 -89 26 -137c0 -49 -9 -95 -26 -138c-17 -44 -43 -83 -76 -115c-70 -68 -169 -104 -287 -104h-50c-118 0 -217 36 -287 104c-33 32 -59 71 -77 115c-16 43 -25 89 -25 138c0 48 9 95 25 137c18 44 44 83 77 116
c70 68 169 104 287 104h50c118 0 217 -36 287 -104zM509 128c161 0 262 88 262 230c0 141 -101 230 -262 230h-50c-162 0 -262 -89 -262 -230c0 -142 100 -230 262 -230h50zM472 994l113 -113c25 -25 25 -65 0 -90c-13 -12 -29 -18 -45 -18s-33 6 -45 18l-113 113
c-25 25 -25 66 0 90c25 25 65 25 90 0z" />
    <glyph glyph-name="Ntilde" unicode="&#xd1;" 
d="M758 715c35 0 63 -29 63 -64v-586c0 -26 -15 -49 -38 -59c-8 -3 -17 -5 -25 -5c-16 0 -32 6 -44 17l-517 486v-439c0 -36 -28 -64 -63 -64s-64 28 -64 64v586c0 25 15 48 39 58c23 10 50 6 68 -12l517 -485v439c0 35 28 64 64 64zM691 844c-33 -45 -81 -69 -135 -69
c-62 0 -107 30 -144 54c-34 22 -56 36 -85 36c-15 0 -25 -5 -33 -16c-9 -12 -12 -26 -12 -26v1c-30 -87 -135 -49 -118 21c1 6 7 37 28 68c31 46 79 72 135 72c66 0 114 -31 152 -56c32 -21 52 -34 77 -34c10 0 24 2 37 18c10 13 14 28 14 28v-1c25 73 137 56 116 -30
c-1 -6 -10 -35 -32 -66z" />
    <glyph glyph-name="Yacute" unicode="&#xdd;" horiz-adv-x="812" 
d="M746 708c32 -16 44 -54 28 -86l-89 -177c-27 -51 -66 -94 -116 -125c-31 -19 -64 -32 -100 -39v-216c0 -36 -28 -64 -63 -64s-64 28 -64 64v216c-35 7 -69 20 -100 39c-49 31 -89 74 -115 125l-90 177c-16 32 -3 70 28 86s70 3 86 -28l89 -177c32 -63 96 -102 166 -102
s133 39 165 102l90 177c16 31 54 44 85 28zM417 984c23 23 61 23 85 0c23 -24 23 -62 0 -85l-107 -107c-12 -11 -27 -17 -42 -17c-16 0 -31 5 -43 17c-23 24 -23 62 0 85z" />
    <glyph glyph-name="Udieresis" unicode="&#xdc;" 
d="M758 715c35 0 63 -29 63 -64v-293c0 -48 -7 -94 -22 -135c-15 -44 -38 -83 -68 -116c-64 -69 -155 -106 -263 -106h-45c-107 0 -198 37 -262 106c-30 33 -53 72 -68 116c-15 41 -23 87 -23 135v293c0 35 29 64 64 64s64 -29 64 -64v-293c0 -111 59 -230 225 -230h45
c167 0 226 119 226 230v293c0 35 29 64 64 64zM344 935c45 0 80 -36 80 -80c0 -45 -35 -80 -80 -80c-44 0 -80 35 -80 80c0 44 36 80 80 80zM546 935c44 0 80 -36 80 -80c0 -45 -36 -80 -80 -80s-80 35 -80 80c0 44 36 80 80 80z" />
    <glyph glyph-name="Ucircumflex" unicode="&#xdb;" 
d="M758 715c35 0 63 -29 63 -64v-293c0 -48 -7 -94 -22 -135c-15 -44 -38 -83 -68 -116c-64 -69 -155 -106 -263 -106h-45c-107 0 -198 37 -262 106c-30 33 -53 72 -68 116c-15 41 -23 87 -23 135v293c0 35 29 64 64 64s64 -29 64 -64v-293c0 -111 59 -230 225 -230h45
c167 0 226 119 226 230v293c0 35 29 64 64 64zM662 885c28 -18 36 -56 18 -83c-12 -18 -31 -27 -50 -27c-12 0 -23 3 -33 9l-152 100l-152 -100c-10 -6 -22 -9 -33 -9c-19 0 -39 9 -50 27c-18 27 -11 65 17 83l184 120c20 14 48 14 68 0z" />
    <glyph glyph-name="Uacute" unicode="&#xda;" 
d="M758 715c35 0 63 -29 63 -64v-293c0 -48 -7 -94 -22 -135c-15 -44 -38 -83 -68 -116c-64 -69 -155 -106 -263 -106h-45c-107 0 -198 37 -262 106c-30 33 -53 72 -68 116c-15 41 -23 87 -23 135v293c0 35 29 64 64 64s64 -29 64 -64v-293c0 -111 59 -230 225 -230h45
c167 0 226 119 226 230v293c0 35 29 64 64 64zM456 984c23 23 61 23 85 0c23 -24 23 -62 0 -85l-107 -107c-12 -11 -27 -17 -42 -17c-16 0 -31 5 -43 17c-23 24 -23 62 0 85z" />
    <glyph glyph-name="Ugrave" unicode="&#xd9;" 
d="M758 715c35 0 63 -29 63 -64v-293c0 -48 -7 -94 -22 -135c-15 -44 -38 -83 -68 -116c-64 -69 -155 -106 -263 -106h-45c-107 0 -198 37 -262 106c-30 33 -53 72 -68 116c-15 41 -23 87 -23 135v293c0 35 29 64 64 64s64 -29 64 -64v-293c0 -111 59 -230 225 -230h45
c167 0 226 119 226 230v293c0 35 29 64 64 64zM434 994l113 -113c25 -25 25 -65 0 -90c-13 -12 -29 -18 -45 -18s-33 6 -45 18l-113 113c-25 25 -25 66 0 90c25 25 65 25 90 0z" />
    <glyph glyph-name="aring" unicode="&#xe5;" 
d="M583 715c64 0 124 -25 169 -70s69 -105 69 -169v-411c0 -36 -28 -64 -63 -64s-64 28 -64 64v229h-413c-46 0 -83 -37 -83 -83s37 -83 83 -83h165c35 0 64 -28 64 -63c0 -36 -29 -64 -64 -64h-165c-116 0 -211 94 -211 210s95 210 211 210h413v55c0 62 -50 112 -111 112
h-396c-35 0 -64 28 -64 63s29 64 64 64h396zM445 1169c109 0 197 -88 197 -197s-88 -197 -197 -197s-197 88 -197 197s88 197 197 197zM445 895c43 0 77 34 77 77c0 42 -34 77 -77 77s-77 -35 -77 -77c0 -43 34 -77 77 -77z" />
    <glyph glyph-name="adieresis" unicode="&#xe4;" 
d="M583 715c64 0 124 -25 169 -70s69 -105 69 -169v-411c0 -36 -28 -64 -63 -64s-64 28 -64 64v229h-413c-46 0 -83 -37 -83 -83s37 -83 83 -83h165c35 0 64 -28 64 -63c0 -36 -29 -64 -64 -64h-165c-116 0 -211 94 -211 210s95 210 211 210h413v55c0 62 -50 112 -111 112
h-396c-35 0 -64 28 -64 63s29 64 64 64h396zM344 935c45 0 80 -36 80 -80c0 -45 -35 -80 -80 -80c-44 0 -80 35 -80 80c0 44 36 80 80 80zM546 935c44 0 80 -36 80 -80c0 -45 -36 -80 -80 -80s-80 35 -80 80c0 44 36 80 80 80z" />
    <glyph glyph-name="atilde" unicode="&#xe3;" 
d="M583 715c64 0 124 -25 169 -70s69 -105 69 -169v-411c0 -36 -28 -64 -63 -64s-64 28 -64 64v229h-413c-46 0 -83 -37 -83 -83s37 -83 83 -83h165c35 0 64 -28 64 -63c0 -36 -29 -64 -64 -64h-165c-116 0 -211 94 -211 210s95 210 211 210h413v55c0 62 -50 112 -111 112
h-396c-35 0 -64 28 -64 63s29 64 64 64h396zM691 844c-33 -45 -81 -69 -135 -69c-62 0 -107 30 -144 54c-34 22 -56 36 -85 36c-15 0 -25 -5 -33 -16c-9 -12 -12 -26 -12 -26v1c-30 -87 -135 -49 -118 21c1 6 7 37 28 68c31 46 79 72 135 72c66 0 114 -31 152 -56
c32 -21 52 -34 77 -34c10 0 24 2 37 18c10 13 14 28 14 28v-1c25 73 137 56 116 -30c-1 -6 -10 -35 -32 -66z" />
    <glyph glyph-name="acircumflex" unicode="&#xe2;" 
d="M583 715c64 0 124 -25 169 -70s69 -105 69 -169v-411c0 -36 -28 -64 -63 -64s-64 28 -64 64v229h-413c-46 0 -83 -37 -83 -83s37 -83 83 -83h165c35 0 64 -28 64 -63c0 -36 -29 -64 -64 -64h-165c-116 0 -211 94 -211 210s95 210 211 210h413v55c0 62 -50 112 -111 112
h-396c-35 0 -64 28 -64 63s29 64 64 64h396zM662 885c28 -18 36 -56 18 -83c-12 -18 -31 -27 -50 -27c-12 0 -23 3 -33 9l-152 100l-152 -100c-10 -6 -22 -9 -33 -9c-19 0 -39 9 -50 27c-18 27 -11 65 17 83l184 120c20 14 48 14 68 0z" />
    <glyph glyph-name="aacute" unicode="&#xe1;" 
d="M583 715c64 0 124 -25 169 -70s69 -105 69 -169v-411c0 -36 -28 -64 -63 -64s-64 28 -64 64v229h-413c-46 0 -83 -37 -83 -83s37 -83 83 -83h165c35 0 64 -28 64 -63c0 -36 -29 -64 -64 -64h-165c-116 0 -211 94 -211 210s95 210 211 210h413v55c0 62 -50 112 -111 112
h-396c-35 0 -64 28 -64 63s29 64 64 64h396zM456 984c23 23 61 23 85 0c23 -24 23 -62 0 -85l-107 -107c-12 -11 -27 -17 -42 -17c-16 0 -31 5 -43 17c-23 24 -23 62 0 85z" />
    <glyph glyph-name="agrave" unicode="&#xe0;" 
d="M583 715c64 0 124 -25 169 -70s69 -105 69 -169v-411c0 -36 -28 -64 -63 -64s-64 28 -64 64v229h-413c-46 0 -83 -37 -83 -83s37 -83 83 -83h165c35 0 64 -28 64 -63c0 -36 -29 -64 -64 -64h-165c-116 0 -211 94 -211 210s95 210 211 210h413v55c0 62 -50 112 -111 112
h-396c-35 0 -64 28 -64 63s29 64 64 64h396zM434 994l113 -113c25 -25 25 -65 0 -90c-13 -12 -29 -18 -45 -18s-33 6 -45 18l-113 113c-25 25 -25 66 0 90c25 25 65 25 90 0z" />
    <glyph glyph-name="idieresis" unicode="&#xef;" horiz-adv-x="627" 
d="M493 588h-116v-460h116c36 0 64 -28 64 -63c0 -36 -28 -64 -64 -64h-359c-35 0 -64 28 -64 64c0 35 29 63 64 63h116v460h-116c-35 0 -64 28 -64 63s29 64 64 64h359c36 0 64 -29 64 -64s-28 -63 -64 -63zM212 935c45 0 80 -36 80 -80c0 -45 -35 -80 -80 -80
c-44 0 -80 35 -80 80c0 44 36 80 80 80zM414 935c44 0 80 -36 80 -80c0 -45 -36 -80 -80 -80s-80 35 -80 80c0 44 36 80 80 80z" />
    <glyph glyph-name="icircumflex" unicode="&#xee;" horiz-adv-x="627" 
d="M493 588h-116v-460h116c36 0 64 -28 64 -63c0 -36 -28 -64 -64 -64h-359c-35 0 -64 28 -64 64c0 35 29 63 64 63h116v460h-116c-35 0 -64 28 -64 63s29 64 64 64h359c36 0 64 -29 64 -64s-28 -63 -64 -63zM531 885c28 -18 36 -56 18 -83c-12 -18 -31 -27 -50 -27
c-12 0 -23 3 -33 9l-152 100l-152 -100c-10 -6 -22 -9 -33 -9c-19 0 -39 9 -50 27c-18 27 -11 65 17 83l184 120c20 14 48 14 68 0z" />
    <glyph glyph-name="iacute" unicode="&#xed;" horiz-adv-x="627" 
d="M493 588h-116v-460h116c36 0 64 -28 64 -63c0 -36 -28 -64 -64 -64h-359c-35 0 -64 28 -64 64c0 35 29 63 64 63h116v460h-116c-35 0 -64 28 -64 63s29 64 64 64h359c36 0 64 -29 64 -64s-28 -63 -64 -63zM324 984c23 23 61 23 85 0c23 -24 23 -62 0 -85l-107 -107
c-12 -11 -27 -17 -42 -17c-16 0 -31 5 -43 17c-23 24 -23 62 0 85z" />
    <glyph glyph-name="igrave" unicode="&#xec;" horiz-adv-x="627" 
d="M493 588h-116v-460h116c36 0 64 -28 64 -63c0 -36 -28 -64 -64 -64h-359c-35 0 -64 28 -64 64c0 35 29 63 64 63h116v460h-116c-35 0 -64 28 -64 63s29 64 64 64h359c36 0 64 -29 64 -64s-28 -63 -64 -63zM302 994l113 -113c25 -25 25 -65 0 -90c-13 -12 -29 -18 -45 -18
s-33 6 -45 18l-113 113c-25 25 -25 66 0 90c25 25 65 25 90 0z" />
    <glyph glyph-name="edieresis" unicode="&#xeb;" 
d="M611 294h-414v-47c0 -66 54 -119 119 -119h389c35 0 63 -28 63 -63c0 -36 -28 -64 -63 -64h-389c-66 0 -127 26 -174 72c-46 46 -72 108 -72 174v220c0 66 26 128 73 175s109 73 175 73h293c116 0 210 -95 210 -211c0 -115 -94 -210 -210 -210zM197 467v-46h414
c46 0 83 38 83 83c0 46 -37 84 -83 84h-293c-67 0 -121 -55 -121 -121zM344 935c45 0 80 -36 80 -80c0 -45 -35 -80 -80 -80c-44 0 -80 35 -80 80c0 44 36 80 80 80zM546 935c44 0 80 -36 80 -80c0 -45 -36 -80 -80 -80s-80 35 -80 80c0 44 36 80 80 80z" />
    <glyph glyph-name="ecircumflex" unicode="&#xea;" 
d="M611 294h-414v-47c0 -66 54 -119 119 -119h389c35 0 63 -28 63 -63c0 -36 -28 -64 -63 -64h-389c-66 0 -127 26 -174 72c-46 46 -72 108 -72 174v220c0 66 26 128 73 175s109 73 175 73h293c116 0 210 -95 210 -211c0 -115 -94 -210 -210 -210zM197 467v-46h414
c46 0 83 38 83 83c0 46 -37 84 -83 84h-293c-67 0 -121 -55 -121 -121zM661 884c28 -18 36 -56 18 -83c-12 -18 -31 -27 -50 -27c-12 0 -23 3 -33 9l-152 100l-152 -100c-10 -6 -22 -9 -33 -9c-19 0 -39 9 -50 27c-18 27 -11 65 17 83l184 120c20 14 48 14 68 0z" />
    <glyph glyph-name="eacute" unicode="&#xe9;" 
d="M611 294h-414v-47c0 -66 54 -119 119 -119h389c35 0 63 -28 63 -63c0 -36 -28 -64 -63 -64h-389c-66 0 -127 26 -174 72c-46 46 -72 108 -72 174v220c0 66 26 128 73 175s109 73 175 73h293c116 0 210 -95 210 -211c0 -115 -94 -210 -210 -210zM197 467v-46h414
c46 0 83 38 83 83c0 46 -37 84 -83 84h-293c-67 0 -121 -55 -121 -121zM456 984c23 23 61 23 85 0c23 -24 23 -62 0 -85l-107 -107c-12 -11 -27 -17 -42 -17c-16 0 -31 5 -43 17c-23 24 -23 62 0 85z" />
    <glyph glyph-name="egrave" unicode="&#xe8;" 
d="M611 294h-414v-47c0 -66 54 -119 119 -119h389c35 0 63 -28 63 -63c0 -36 -28 -64 -63 -64h-389c-66 0 -127 26 -174 72c-46 46 -72 108 -72 174v220c0 66 26 128 73 175s109 73 175 73h293c116 0 210 -95 210 -211c0 -115 -94 -210 -210 -210zM197 467v-46h414
c46 0 83 38 83 83c0 46 -37 84 -83 84h-293c-67 0 -121 -55 -121 -121zM434 994l113 -113c25 -25 25 -65 0 -90c-13 -12 -29 -18 -45 -18s-33 6 -45 18l-113 113c-25 25 -25 66 0 90c25 25 65 25 90 0z" />
    <glyph glyph-name="ccedilla" unicode="&#xe7;" 
d="M427 588c-127 0 -230 -104 -230 -230c0 -127 103 -230 230 -230h330c35 0 64 -28 64 -63c0 -36 -29 -64 -64 -64h-330c-48 0 -95 9 -139 28c-43 18 -81 44 -113 76c-33 33 -59 71 -77 114c-19 44 -28 91 -28 139s9 95 28 139c18 42 44 80 77 113c32 33 70 59 113 77
c44 18 91 28 139 28h330c35 0 64 -29 64 -64s-29 -63 -64 -63h-330zM506 118c49 -17 94 -52 126 -99c34 -48 48 -102 42 -150c-6 -40 -25 -73 -57 -97c-31 -24 -72 -37 -123 -40h-3c-32 0 -58 24 -60 56c-2 33 24 62 57 63c25 2 45 7 56 16c7 5 10 10 11 18
c2 18 -6 43 -22 66c-17 25 -42 45 -66 53c-31 11 -48 45 -37 76c11 32 45 48 76 38z" />
    <glyph glyph-name="odieresis" unicode="&#xf6;" horiz-adv-x="967" 
d="M795 611c34 -33 59 -72 77 -116c17 -42 25 -89 25 -137c0 -49 -8 -95 -25 -138c-18 -44 -43 -83 -77 -115c-70 -68 -169 -104 -286 -104h-51c-117 0 -216 36 -286 104c-34 32 -60 71 -77 115c-17 43 -25 89 -25 138c0 48 8 95 25 137c17 44 43 83 77 116
c70 68 169 104 286 104h51c117 0 216 -36 286 -104zM509 128c161 0 261 88 261 230c0 141 -100 230 -261 230h-51c-161 0 -261 -89 -261 -230c0 -142 100 -230 261 -230h51zM382 935c45 0 80 -36 80 -80c0 -45 -35 -80 -80 -80c-44 0 -80 35 -80 80c0 44 36 80 80 80z
M584 935c44 0 80 -36 80 -80c0 -45 -36 -80 -80 -80s-80 35 -80 80c0 44 36 80 80 80z" />
    <glyph glyph-name="otilde" unicode="&#xf5;" horiz-adv-x="967" 
d="M795 611c34 -33 59 -72 77 -116c17 -42 25 -89 25 -137c0 -49 -8 -95 -25 -138c-18 -44 -43 -83 -77 -115c-70 -68 -169 -104 -286 -104h-51c-117 0 -216 36 -286 104c-34 32 -60 71 -77 115c-17 43 -25 89 -25 138c0 48 8 95 25 137c17 44 43 83 77 116
c70 68 169 104 286 104h51c117 0 216 -36 286 -104zM509 128c161 0 261 88 261 230c0 141 -100 230 -261 230h-51c-161 0 -261 -89 -261 -230c0 -142 100 -230 261 -230h51zM729 844c-33 -45 -81 -69 -135 -69c-62 0 -107 30 -144 54c-34 22 -56 36 -85 36
c-15 0 -25 -5 -33 -16c-9 -12 -12 -26 -12 -26v1c-30 -87 -135 -49 -118 21c1 6 7 37 28 68c31 46 79 72 135 72c66 0 114 -31 152 -56c32 -21 52 -34 77 -34c10 0 24 2 37 18c10 13 14 28 14 28v-1c25 73 137 56 116 -30c-1 -6 -10 -35 -32 -66z" />
    <glyph glyph-name="ocircumflex" unicode="&#xf4;" horiz-adv-x="967" 
d="M795 611c34 -33 59 -72 77 -116c17 -42 25 -89 25 -137c0 -49 -8 -95 -25 -138c-18 -44 -43 -83 -77 -115c-70 -68 -169 -104 -286 -104h-51c-117 0 -216 36 -286 104c-34 32 -60 71 -77 115c-17 43 -25 89 -25 138c0 48 8 95 25 137c17 44 43 83 77 116
c70 68 169 104 286 104h51c117 0 216 -36 286 -104zM509 128c161 0 261 88 261 230c0 141 -100 230 -261 230h-51c-161 0 -261 -89 -261 -230c0 -142 100 -230 261 -230h51zM700 885c28 -18 36 -56 18 -83c-12 -18 -31 -27 -50 -27c-12 0 -23 3 -33 9l-152 100l-152 -100
c-10 -6 -22 -9 -33 -9c-19 0 -39 9 -50 27c-18 27 -11 65 17 83l184 120c20 14 48 14 68 0z" />
    <glyph glyph-name="oacute" unicode="&#xf3;" horiz-adv-x="967" 
d="M795 611c34 -33 59 -72 77 -116c17 -42 25 -89 25 -137c0 -49 -8 -95 -25 -138c-18 -44 -43 -83 -77 -115c-70 -68 -169 -104 -286 -104h-51c-117 0 -216 36 -286 104c-34 32 -60 71 -77 115c-17 43 -25 89 -25 138c0 48 8 95 25 137c17 44 43 83 77 116
c70 68 169 104 286 104h51c117 0 216 -36 286 -104zM509 128c161 0 261 88 261 230c0 141 -100 230 -261 230h-51c-161 0 -261 -89 -261 -230c0 -142 100 -230 261 -230h51zM494 984c23 23 61 23 85 0c23 -24 23 -62 0 -85l-107 -107c-12 -11 -27 -17 -42 -17
c-16 0 -31 5 -43 17c-23 24 -23 62 0 85z" />
    <glyph glyph-name="ograve" unicode="&#xf2;" horiz-adv-x="967" 
d="M795 611c34 -33 59 -72 77 -116c17 -42 25 -89 25 -137c0 -49 -8 -95 -25 -138c-18 -44 -43 -83 -77 -115c-70 -68 -169 -104 -286 -104h-51c-117 0 -216 36 -286 104c-34 32 -60 71 -77 115c-17 43 -25 89 -25 138c0 48 8 95 25 137c17 44 43 83 77 116
c70 68 169 104 286 104h51c117 0 216 -36 286 -104zM509 128c161 0 261 88 261 230c0 141 -100 230 -261 230h-51c-161 0 -261 -89 -261 -230c0 -142 100 -230 261 -230h51zM472 994l113 -113c25 -25 25 -65 0 -90c-13 -12 -29 -18 -45 -18s-33 6 -45 18l-113 113
c-25 25 -25 66 0 90c25 25 65 25 90 0z" />
    <glyph glyph-name="ntilde" unicode="&#xf1;" 
d="M728 622c29 -30 52 -64 68 -101c17 -40 25 -81 25 -124v-332c0 -36 -28 -64 -63 -64c-36 0 -64 28 -64 64v332c0 105 -86 191 -191 191h-115c-105 0 -191 -86 -191 -191v-332c0 -36 -28 -64 -63 -64s-64 28 -64 64v332c0 43 9 84 25 124c16 37 39 71 68 101
c29 29 63 52 101 68c39 16 81 25 124 25h115c43 0 85 -9 124 -25c38 -16 72 -39 101 -68zM691 844c-33 -45 -81 -69 -135 -69c-62 0 -107 30 -144 54c-34 22 -56 36 -85 36c-15 0 -25 -5 -33 -16c-9 -12 -12 -26 -12 -26v1c-30 -87 -135 -49 -118 21c1 6 7 37 28 68
c31 46 79 72 135 72c66 0 114 -31 152 -56c32 -21 52 -34 77 -34c10 0 24 2 37 18c10 13 14 28 14 28v-1c25 73 137 56 116 -30c-1 -6 -10 -35 -32 -66z" />
    <glyph glyph-name="yacute" unicode="&#xfd;" 
d="M758 715c35 0 63 -29 63 -64v-332c0 -93 -23 -167 -68 -221c-55 -64 -139 -97 -250 -97h-180c-90 0 -176 39 -237 106c-23 26 -21 66 5 90c27 23 67 21 90 -5c36 -41 88 -64 142 -64h180c72 0 124 18 153 52c25 30 38 77 38 139v22c-50 -31 -114 -47 -191 -47h-115
c-111 0 -195 33 -249 97c-46 54 -69 128 -69 221v39c0 35 29 64 64 64s63 -29 63 -64v-39c0 -62 13 -109 39 -139c29 -34 80 -52 152 -52h115c72 0 124 18 153 52c25 30 38 77 38 139v39c0 35 29 64 64 64zM456 984c23 23 61 23 85 0c23 -24 23 -62 0 -85l-107 -107
c-12 -11 -27 -17 -42 -17c-16 0 -31 5 -43 17c-23 24 -23 62 0 85z" />
    <glyph glyph-name="udieresis" unicode="&#xfc;" 
d="M758 715c35 0 63 -29 63 -64v-293c0 -48 -7 -94 -22 -135c-15 -44 -38 -83 -68 -116c-64 -69 -155 -106 -263 -106h-45c-108 0 -198 37 -262 106c-30 33 -53 72 -69 116c-14 41 -22 87 -22 135v293c0 35 29 64 64 64s63 -29 63 -64v-293c0 -111 60 -230 226 -230h45
c167 0 226 119 226 230v293c0 35 29 64 64 64zM344 935c45 0 80 -36 80 -80c0 -45 -35 -80 -80 -80c-44 0 -80 35 -80 80c0 44 36 80 80 80zM546 935c44 0 80 -36 80 -80c0 -45 -36 -80 -80 -80s-80 35 -80 80c0 44 36 80 80 80z" />
    <glyph glyph-name="ucircumflex" unicode="&#xfb;" 
d="M758 715c35 0 63 -29 63 -64v-293c0 -48 -7 -94 -22 -135c-15 -44 -38 -83 -68 -116c-64 -69 -155 -106 -263 -106h-45c-108 0 -198 37 -262 106c-30 33 -53 72 -69 116c-14 41 -22 87 -22 135v293c0 35 29 64 64 64s63 -29 63 -64v-293c0 -111 60 -230 226 -230h45
c167 0 226 119 226 230v293c0 35 29 64 64 64zM662 885c28 -18 36 -56 18 -83c-12 -18 -31 -27 -50 -27c-12 0 -23 3 -33 9l-152 100l-152 -100c-10 -6 -22 -9 -33 -9c-19 0 -39 9 -50 27c-18 27 -11 65 17 83l184 120c20 14 48 14 68 0z" />
    <glyph glyph-name="uacute" unicode="&#xfa;" 
d="M758 715c35 0 63 -29 63 -64v-293c0 -48 -7 -94 -22 -135c-15 -44 -38 -83 -68 -116c-64 -69 -155 -106 -263 -106h-45c-108 0 -198 37 -262 106c-30 33 -53 72 -69 116c-14 41 -22 87 -22 135v293c0 35 29 64 64 64s63 -29 63 -64v-293c0 -111 60 -230 226 -230h45
c167 0 226 119 226 230v293c0 35 29 64 64 64zM456 984c23 23 61 23 85 0c23 -24 23 -62 0 -85l-107 -107c-12 -11 -27 -17 -42 -17c-16 0 -31 5 -43 17c-23 24 -23 62 0 85z" />
    <glyph glyph-name="ugrave" unicode="&#xf9;" 
d="M758 715c35 0 63 -29 63 -64v-293c0 -48 -7 -94 -22 -135c-15 -44 -38 -83 -68 -116c-64 -69 -155 -106 -263 -106h-45c-108 0 -198 37 -262 106c-30 33 -53 72 -69 116c-14 41 -22 87 -22 135v293c0 35 29 64 64 64s63 -29 63 -64v-293c0 -111 60 -230 226 -230h45
c167 0 226 119 226 230v293c0 35 29 64 64 64zM434 994l113 -113c25 -25 25 -65 0 -90c-13 -12 -29 -18 -45 -18s-33 6 -45 18l-113 113c-25 25 -25 66 0 90c25 25 65 25 90 0z" />
    <glyph glyph-name="ydieresis" unicode="&#xff;" 
d="M758 715c35 0 63 -29 63 -64v-332c0 -93 -23 -167 -68 -221c-55 -64 -139 -97 -250 -97h-180c-90 0 -176 39 -237 106c-23 26 -21 66 5 90c27 23 67 21 90 -5c36 -41 88 -64 142 -64h180c72 0 124 18 153 52c25 30 38 77 38 139v22c-50 -31 -114 -47 -191 -47h-115
c-111 0 -195 33 -249 97c-46 54 -69 128 -69 221v39c0 35 29 64 64 64s63 -29 63 -64v-39c0 -62 13 -109 39 -139c29 -34 80 -52 152 -52h115c72 0 124 18 153 52c25 30 38 77 38 139v39c0 35 29 64 64 64zM344 935c45 0 80 -36 80 -80c0 -45 -35 -80 -80 -80
c-44 0 -80 35 -80 80c0 44 36 80 80 80zM546 935c44 0 80 -36 80 -80c0 -45 -36 -80 -80 -80s-80 35 -80 80c0 44 36 80 80 80z" />
    </font>
</defs>
</svg>
